<?xml version="1.0" encoding="UTF-8" standalone="no"?>
<!-- Created with Inkscape (http://www.inkscape.org/) -->

<svg
   width="68mm"
   height="63mm"
   viewBox="0 0 68 63"
   version="1.1"
   id="svg1"
   inkscape:export-filename="minnie.svg"
   inkscape:export-xdpi="96"
   inkscape:export-ydpi="96"
   xmlns:inkscape="http://www.inkscape.org/namespaces/inkscape"
   xmlns:sodipodi="http://sodipodi.sourceforge.net/DTD/sodipodi-0.dtd"
   xmlns="http://www.w3.org/2000/svg"
   xmlns:svg="http://www.w3.org/2000/svg">
  <sodipodi:namedview
     id="namedview1"
     pagecolor="#ffffff"
     bordercolor="#000000"
     borderopacity="0.25"
     inkscape:showpageshadow="2"
     inkscape:pageopacity="0.0"
     inkscape:pagecheckerboard="0"
     inkscape:deskcolor="#d1d1d1"
     inkscape:document-units="mm" />
  <defs
     id="defs1" />
  <g
     inkscape:groupmode="layer"
     id="layer2"
     inkscape:label="Capa 2">
    <path
       style="display:inline;fill:#ffffff;stroke-width:0.264583"
       d="m 17.200772,36.312742 -6.498069,-11.467183 5.73359,-6.498069 0.764479,-7.262548 3.440154,-6.4980696 4.204633,-3.0579149 2.293436,0.3822394 5.351351,6.4980694 3.440155,7.2625477 0.382241,7.262549 9.938223,-11.849421 7.262548,-5.7335907 6.115831,0.3822393 2.293434,4.5868724 -4.586872,14.525096 -8.791506,14.907338 -4.96911,16.81853 1.528955,-2.293435 -24.463319,2.293435 -9.173745,-9.173744 z"
       id="path1" />
  </g>
  <g
     inkscape:label="Capa 1"
     inkscape:groupmode="layer"
     id="layer1">
    <path
       id="ARC"
       class="st0"
       d="m 67.131952,26.397179 c 0.17001,2.14637 -0.15938,4.3565 -1.20069,6.14161 -0.66942,1.15819 -1.63635,2.13576 -2.63517,3.07081 -0.92442,0.8713 -1.88073,1.7001 -2.9858,2.30576 -1.06256,0.58441 -2.26325,0.95631 -3.46395,1.1582 -1.2007,0.20188 -2.42264,0.23376 -3.64459,0.19126 -0.88193,-0.0319 -1.75324,-0.085 -2.62453,-0.15939 -0.0744,-0.0106 -0.13814,0.0213 -0.19127,0.0744 -0.0531,0.0531 -0.0744,0.11689 -0.0637,0.19126 0.10625,0.85006 0.21251,1.68948 0.26564,2.53953 0.0956,1.71072 -0.0531,3.4427 -0.21251,5.16406 -0.0106,0.0637 0.0106,0.12751 0.0637,0.18063 0.0425,0.0531 0.10626,0.0744 0.17001,0.0744 0.39315,0 0.77567,0.0106 1.14757,0.10626 0.56316,0.15939 1.07319,0.51003 1.47696,0.98818 0.31877,0.3719 0.55253,0.81818 0.91381,1.06256 0.58441,0.41441 1.46634,0.29753 2.24201,0.49941 0.78629,0.20189 1.44508,0.74379 1.89136,1.38134 0.39315,0.56315 0.61628,1.21132 0.9138,1.88073 0.23377,0.53128 0.52066,1.07319 0.40378,1.60447 -0.0744,0.31877 -0.2869,0.62691 -0.57379,0.79692 -0.21251,0.11689 -0.4569,0.17001 -0.69067,0.18064 -0.66941,0.0531 -1.26444,-0.14876 -2.04012,-0.0425 -0.43565,0.0531 -0.92442,0.21251 -1.14756,-0.0531 0,0 0,0 0,0 -0.0425,-0.0531 -0.10626,-0.085 -0.18064,-0.085 -0.0744,0 -0.13813,0.0319 -0.18064,0.085 -0.26564,0.34002 -0.53128,0.66942 -0.79692,0.99881 -0.34002,0.4144 -0.69066,0.8288 -1.07319,1.22195 -0.34002,0.35064 -0.71192,0.70129 -1.14756,0.9138 -0.45691,0.23376 -0.98819,0.31877 -1.54072,0.32939 -0.45691,0.0106 -0.91381,-0.0212 -1.27507,-0.24438 -0.3294,-0.20189 -0.58442,-0.57379 -0.72255,-0.95631 -0.11688,-0.31877 -0.15939,-0.64817 -0.18063,-0.97756 0,-0.0744 -0.0531,-0.12751 -0.11689,-0.13814 -0.0637,-0.0212 -0.13813,0.0106 -0.17001,0.0744 -0.15938,0.27626 -0.31877,0.5419 -0.4994,0.80755 -0.36128,0.53127 -0.77568,1.05193 -1.31758,1.39195 -0.46753,0.29752 -1.02006,0.45691 -1.60447,0.4994 -0.47816,0.0319 -0.97756,-0.0106 -1.36008,-0.24438 -0.3719,-0.22314 -0.63754,-0.61629 -0.82881,-1.02006 -0.14875,-0.29752 -0.25501,-0.61629 -0.30813,-0.93506 -0.0106,-0.0638 -0.0106,-0.12751 -0.0212,-0.19126 -0.0106,-0.0744 -0.0531,-0.12751 -0.12751,-0.13813 -0.0744,-0.0106 -0.13813,0.0212 -0.17001,0.085 -0.0744,0.15939 -0.15938,0.30814 -0.26564,0.44628 -0.27626,0.3719 -0.68004,0.64816 -1.14757,0.81817 -0.46752,0.17001 -0.9988,0.22314 -1.41321,0.0212 -0.36127,-0.17001 -0.63754,-0.5419 -0.81817,-0.92442 -0.17002,-0.37191 -0.25502,-0.76505 -0.2869,-1.1582 -0.0106,-0.21251 -0.0106,-0.4144 -0.0106,-0.62691 -0.70129,0.0213 -1.40258,0.0425 -2.10387,0.0637 -1.96574,0.0531 -3.92086,0.085 -5.886602,0.11688 -2.050748,0.0319 -4.112121,0.0638 -6.16287,0.085 0,0.0106 0,0.0213 0,0.0319 -0.085,0.60566 -0.244388,1.2007 -0.58441,1.72135 -0.28689,0.43565 -0.690666,0.80755 -1.19007,0.92443 -0.648164,0.15939 -1.445084,-0.11688 -1.84886,-0.61628 -0.127508,-0.15938 -0.212514,-0.3294 -0.286891,-0.52066 -0.02125,-0.0425 -0.05313,-0.0637 -0.106256,-0.0637 -0.0425,0.0106 -0.07438,0.0425 -0.085,0.085 -0.01062,0.22314 -0.0425,0.44628 -0.106257,0.64817 -0.180635,0.58441 -0.637538,1.10506 -1.16882,1.45571 -0.552532,0.36127 -1.19007,0.5419 -1.84886,0.53128 -0.648163,-0.0212 -1.317578,-0.23376 -1.774481,-0.64816 -0.584409,-0.53128 -0.807548,-1.39196 -1.083815,-2.16763 -0.085,-0.23377 -0.170009,-0.4569 -0.26564,-0.68004 -0.02125,-0.0425 -0.06375,-0.0638 -0.106256,-0.0531 -0.04251,0.0106 -0.07438,0.0531 -0.07438,0.0956 0.03188,0.81817 0.03188,1.63635 -0.201887,2.45452 -0.191261,0.68004 -0.541907,1.34946 -1.083815,1.74261 -0.51003,0.3719 -1.200696,0.4994 -1.8807364,0.4994 -1.1263178,0 -2.2313838,-0.35064 -3.0389318,-1.06256 -0.382523,-0.3294 -0.690666,-0.73317 -0.935056,-1.16882 -0.276266,-0.46753 -0.467527,-0.97756 -0.648163,-1.49821 -0.106256,-0.29752 -0.201887,-0.59504 -0.297518,-0.90318 -0.01063,-0.0319 -0.03188,-0.0531 -0.05313,-0.0638 -0.03188,-0.0106 -0.06376,-0.0106 -0.08501,0.0106 -0.201887,0.13813 -0.403774,0.26563 -0.616287,0.32939 -0.276266,0.085 -0.573783,0.0956 -0.871301,0.10626 -0.478154,0.0212 -0.956308,0.0637 -1.381333,-0.12751 -0.265641,-0.11689 -0.520656,-0.32939 -0.648164,-0.58441 -0.19126098,-0.3719 -0.138132,-0.83943 -0.0425,-1.27508 0.191261,-0.8713 0.531281,-1.59385 0.881927,-2.39077 0.393149,-0.86067 0.796923,-1.79573 1.530092,-2.31638 0.584409,-0.4144 1.381332,-0.57379 2.125126,-0.62691 0.871302,-0.0638 1.668225,-0.0106 2.560778,0.23376 0.276266,0.0744 0.552533,0.15938 0.786297,0.10625 0.393148,-0.0956 0.6481628,-0.60566 0.9775578,-0.94568 0.3612714,-0.36127 0.8181734,-0.53128 1.2750764,-0.68004 0.07438,-0.0212 0.116882,-0.0956 0.106256,-0.18063 -0.106256,-0.62692 -0.212513,-1.25383 -0.212513,-1.88074 0,-0.64817 0.127508,-1.30695 0.286892,-1.94449 0.350646,-1.38133 0.90318,-2.72017 1.604471,-3.96336 0.499405,-0.90318 1.083815,-1.75323 1.67885,-2.58204 0.350646,-0.48877 0.711918,-0.96693 1.073189,-1.43445 0.06375,-0.085 0.07438,-0.20189 0,-0.28689 -0.06375,-0.085 -0.17001,-0.11689 -0.276267,-0.0744 -0.318768,0.12751 -0.637538,0.2444 -0.966932,0.34002 -1.498214,0.44628 -3.113311,0.45691 -4.6859044,0.12752 -1.8807368,-0.40378 -3.6977198,-1.29633 -4.9409198,-2.66704 -1.221947,-1.34946 -1.891362,-3.15581 -2.316387,-4.99405 -0.403775,-1.7426 -0.595036,-3.49583 -0.350646,-5.21719 0.244389,-1.63634 0.881927,-3.24081 1.785106,-4.6434 0.860676,-1.3282 1.955116,-2.47577 3.208941,-3.43208 0.92443,-0.71191 1.944491,-1.31758 3.0601822,-1.60446 1.051938,-0.26565 2.188881,-0.2444 3.240819,0 0.881927,0.20188 1.721353,0.57378 2.550152,0.94568 0.06375,0.0319 0.138133,0.0319 0.201887,0 0.06375,-0.0319 0.106256,-0.085 0.127507,-0.15939 0.24439,-1.00944 0.499405,-2.00825 0.786297,-3.00705 0.478154,-1.66823 1.073189,-3.3045703 1.763855,-4.8984203 0.531282,-1.22195 1.126315,-2.41201 1.933866,-3.48521 0.584411,-0.76505 1.275076,-1.46634 2.125124,-1.90199 1.402584,-0.70128998 3.230195,-0.66942 4.685906,-0.0425 1.880736,0.80754 3.102685,2.60328 4.250255,4.34588 1.03069,1.56197 2.01887,3.08144 2.6564,4.7602803 0.79693,2.08263 1.05194,4.39901 1.27508,6.66228 0.11688,1.17944 0.21252,2.33764 0.31877,3.50646 0.0106,0.0956 0.0744,0.18064 0.17001,0.20188 0.0956,0.0319 0.19126,-0.0106 0.25502,-0.085 0.62691,-0.88193 1.26445,-1.75323 1.91262,-2.61391 1.73197,-2.29513 3.60208,-4.47339 5.58908,-6.57726 1.57259,-1.66823 3.23018,-3.2939503 5.13217,-4.5265203 1.25383,-0.81818 2.62454,-1.45571 4.08025,-1.97637 1.33883,-0.47816 2.74141,-0.85005 4.11212,-0.63754 1.06256,0.17001 2.1145,0.68004 2.87955,1.45571 1.12631,1.12632 1.67884,2.78391 1.73197,4.3671303 0.0531,1.71074 -0.47815,3.33646 -0.94568,4.95155 -0.27626,0.95631 -0.53127,1.91262 -0.83942,2.8583 -0.13813,0.40377 -0.27627,0.79692 -0.42503,1.19007 -0.0319,0.0744 -0.0213,0.15939 0.0319,0.22314 0.0425,0.0637 0.11688,0.0956 0.20189,0.0956 0.68004,-0.0319 1.36008,-0.0425 2.04012,0.085 1.37071,0.25502 2.69891,1.09444 3.55959,2.22076 0.9138,1.21132 1.29632,2.70954 1.42383,4.23963 z m -7.22543,-10.61501 c 0.55254,-1.7001 1.06257,-3.42146 0.96693,-5.25969 -0.0637,-1.3069603 -0.43565,-2.6670403 -1.34945,-3.5383403 -0.61629,-0.58441 -1.47696,-0.94568 -2.32702,-1.04131 -1.11569,-0.12751 -2.23138,0.20189 -3.29394,0.58441 -1.67885,0.60566 -3.2727,1.36008 -4.68591,2.35889 -1.62572,1.1581903 -3.0283,2.6457803 -4.36713,4.1758803 -1.6576,1.90198 -3.21957,3.84647 -4.73904,5.83347 -0.96693,1.25382 -1.91261,2.51828 -2.85829,3.78272 -0.0638,0.085 -0.0638,0.19126 0,0.27627 0.18064,0.24439 0.35065,0.48878 0.51003,0.74379 0.21251,0.36128 0.39315,0.73317 0.57379,1.11569 0.0319,0.0531 0.0744,0.0956 0.13813,0.12751 0.0637,0.0212 0.1275,0.0212 0.18063,-0.0106 0.24439,-0.11688 0.48878,-0.23376 0.73317,-0.35064 0.89256,-0.41441 1.79573,-0.76505 2.75204,-1.03069 0.89255,-0.25502 1.83824,-0.42503 2.70954,-0.44628 0.73316,-0.0106 1.43446,0.085 2.24201,0.57379 0.34002,0.21251 0.70129,0.48877 0.76504,0.62691 0.11688,0.29752 -1.12632,-0.0213 -2.07199,-0.12751 -1.30696,-0.14876 -2.0295,0.10625 -2.83705,0.42503 -0.72254,0.28688 -1.51947,0.63753 -2.39077,0.92442 -0.63753,0.21252 -1.3282,0.38252 -1.66822,0.87131 -0.19127,0.27626 -0.27627,0.63754 -0.29752,0.99881 -0.0319,0.47815 0.0319,0.93505 0.0956,1.39195 0.30814,0.0425 0.62691,0.085 0.92443,0.15939 0.42503,0.10626 0.8288,0.29751 1.21133,0.52065 0.10625,-0.24439 0.2125,-0.48877 0.30813,-0.73317 0.14877,-0.39314 0.27627,-0.80754 0.64817,-1.09443 0.0638,-0.0531 0.13813,-0.0956 0.19126,-0.10626 0.23376,-0.0531 0.12751,0.52066 0.0319,0.93506 -0.11689,0.48877 -0.23377,0.75441 -0.35065,1.05193 -0.0531,0.11688 -0.0956,0.24439 -0.14876,0.38253 0.10626,0.0744 0.21251,0.14876 0.30815,0.22313 0.35064,0.25502 0.69066,0.53128 1.03068,0.79693 0.14876,-0.23377 0.28689,-0.46753 0.43566,-0.68005 0.28689,-0.40376 0.56316,-0.73316 0.89255,-1.36007 0.26564,-0.51003 0.56316,-1.21133 0.70129,-1.12632 0.11688,0.0637 0.13813,0.61629 0.0531,1.03068 -0.0956,0.54192 -0.36128,0.85005 -0.60567,1.2007 -0.30814,0.43565 -0.58441,0.91381 -0.86067,1.41321 0.0637,0.0425 0.11688,0.0956 0.18063,0.13813 0.64817,0.49941 1.30695,0.98819 1.96575,1.49822 0.18063,-0.15938 0.35064,-0.31877 0.51003,-0.47816 0.40377,-0.40377 0.71191,-0.8288 1.34945,-1.20069 0.30814,-0.19126 0.70129,-0.36127 0.81817,-0.34002 0.23377,0.0425 -0.56316,0.86068 -1.09444,1.37071 -0.34001,0.31877 -0.57378,0.52065 -0.81817,0.75441 -0.0956,0.085 -0.19126,0.18064 -0.29752,0.27627 0.49941,0.40378 0.97756,0.81818 1.42384,1.27507 0.9138,0.92443 1.68947,1.97637 2.45452,3.03894 0.0425,0.0638 0.11688,0.0956 0.19126,0.0956 0.0744,0 0.14876,-0.0425 0.19126,-0.10626 0.75442,-1.12631 1.50884,-2.24201 2.33764,-3.3577 0.64817,-0.8713 1.33883,-1.73198 1.63635,-2.73079 0.21251,-0.71191 0.21251,-1.49821 0.21251,-2.27388 0,-1.41321 0.0106,-2.78392 0.0213,-4.16525 0,-0.0425 0.0212,-0.085 0.0531,-0.11688 0.90318,-0.8288 1.79573,-1.6576 2.40139,-2.66704 0.48879,-0.81817 0.7863,-1.75322 1.19007,-2.63515 0.39315,-0.86068 0.88194,-1.67885 1.2432,-2.53953 0.14877,-0.4569 0.31877,-0.9563 0.47816,-1.45571 z m -1.13694,38.88981 c 0.10626,-0.21251 0,-0.48877 -0.0744,-0.75441 -0.14876,-0.48878 -0.21251,-0.92444 -0.38252,-1.34946 -0.20189,-0.52065 -0.56316,-1.03068 -1.02006,-1.3707 -0.45691,-0.3294 -1.00944,-0.51004 -1.5726,-0.58442 -0.78629,-0.11688 -1.58322,-0.0637 -2.31638,0.19127 -0.79693,0.26564 -1.51947,0.77567 -2.13576,1.36008 -0.34002,0.31876 -0.64817,0.66941 -0.93506,1.03068 -0.23376,0.29752 -0.4569,0.61629 -0.66941,0.94568 -0.31877,0.49941 -0.60566,1.02006 -0.75442,1.59385 -0.14876,0.56316 -0.17001,1.16882 0.0319,1.72135 0.13813,0.40378 0.40377,0.77567 0.75442,0.97756 0.42502,0.23376 0.9988,0.23376 1.46633,0.0531 0.3719,-0.13814 0.66942,-0.38253 0.96694,-0.63755 0.41439,-0.37189 0.80754,-0.78629 1.15819,-1.24319 0.35065,-0.4569 0.65879,-0.95631 0.94568,-1.41321 0.20189,-0.31877 0.40377,-0.60566 0.57379,-0.88193 0.0319,-0.0425 0.0744,-0.0744 0.1275,-0.0744 0.0531,0 0.10626,0.0212 0.13814,0.0744 0.0212,0.0425 0.0531,0.085 0.0744,0.12751 0.0744,0.13813 0.13814,0.30814 0.25502,0.43565 0.085,0.0956 0.19126,0.18064 0.30815,0.23377 0.47815,0.23376 1.05193,0.0106 1.61509,-0.0213 0.40378,-0.0212 0.79693,0.0531 1.14757,-0.12751 0.12751,-0.085 0.24439,-0.18064 0.29752,-0.28689 z m -5.8016,-5.25968 c 0.0106,-0.0637 -0.0106,-0.12751 -0.0531,-0.18064 -0.13812,-0.17001 -0.28689,-0.31877 -0.4569,-0.44628 -0.78629,-0.60566 -1.96574,-0.47815 -3.04956,-0.45689 -1.34945,0.0319 -2.55015,-0.0638 -3.8146,-0.0956 -0.82879,-0.0212 -1.7001,-0.0212 -2.49702,0.20189 -1.2857,0.36127 -2.42265,1.27507 -3.24082,2.36952 -0.70129,0.93505 -1.1582,1.99761 -1.46633,3.11331 -0.18064,0.68004 -0.30815,1.38133 -0.2444,2.08262 0.0425,0.51003 0.19127,1.03069 0.52066,1.44509 0.20189,0.24439 0.46753,0.4569 0.75442,0.4994 0.31877,0.0425 0.65879,-0.11688 0.9138,-0.34002 0.44628,-0.38252 0.60567,-0.95631 0.77568,-1.50884 0.23376,-0.73317 0.47815,-1.44509 0.75441,-2.13575 0.2869,-0.71192 0.61629,-1.41321 1.07319,-2.04012 0.38253,-0.53128 0.86068,-0.99881 1.39196,-1.37071 0.29752,-0.21252 0.62691,-0.39315 0.95631,-0.55254 0.0744,-0.0425 0.17001,-0.0319 0.24439,0.0212 0.10626,0.0744 0.12751,0.22314 0.0531,0.32939 -0.23376,0.3294 -0.47815,0.6588 -0.72254,0.97756 -0.48878,0.63754 -0.99881,1.25383 -1.40258,1.9445 -0.30815,0.53127 -0.56316,1.10506 -0.71192,1.71072 -0.15939,0.64817 -0.21251,1.32821 -0.10626,1.99762 0.085,0.51003 0.26564,1.02006 0.62692,1.38133 0.19126,0.19126 0.42502,0.35065 0.68004,0.42503 0.61628,0.18064 1.33882,-0.14876 1.87011,-0.58441 0.63753,-0.51003 1.03068,-1.17945 1.40258,-1.85949 0.42502,-0.77567 0.83943,-1.55134 1.29633,-2.30576 0.42502,-0.68004 0.89255,-1.33883 1.41321,-1.95511 0.52065,-0.61629 1.10506,-1.17945 1.7426,-1.67886 0.38252,-0.29751 0.7863,-0.57378 1.19007,-0.85005 0.0638,-0.0106 0.0956,-0.0637 0.10626,-0.13813 z m -7.70358,-6.13099 c 0.0531,-1.25383 0.0637,-2.5289 -0.19127,-3.74023 -0.28688,-1.40258 -0.92442,-2.70953 -1.57259,-4.03774 -0.22314,0.14876 -0.4569,0.2869 -0.68004,0.4144 -0.7863,0.45691 -1.63635,0.87131 -2.44389,1.22195 -0.3294,0.13814 -0.66942,0.27627 -0.98819,0.46753 0.28689,0.4994 0.44628,1.06256 0.55254,1.62572 0.17,0.90318 0.20188,1.81699 0.11688,2.73079 -0.0956,0.9563 -0.3294,1.90199 -0.70129,2.78391 -0.34002,0.80755 -0.7863,1.56197 -1.40259,2.22076 -0.36127,0.39315 -0.7863,0.7438 -0.98819,1.21132 -0.0956,0.22314 -0.13813,0.46753 -0.17001,0.72255 -0.0106,0.0531 -0.0319,0.0956 -0.085,0.11688 -0.0425,0.0213 -0.0956,0.0319 -0.13813,0 -0.27627,-0.12751 -0.55253,-0.25502 -0.8288,-0.3719 -0.46753,-0.19126 -0.94568,-0.36127 -1.42384,-0.51003 -1.16881,-0.36127 -2.40139,-0.59503 -3.612712,-0.59503 -0.945681,0 -1.891362,0.13813 -2.837042,0.34002 -0.807552,0.17001 -1.604472,0.39314 -2.348265,0.73317 -0.382523,0.17 -0.743797,0.37189 -1.105067,0.5844 -0.0425,0.0212 -0.09563,0.0319 -0.138134,0.0106 -0.0425,-0.0213 -0.07438,-0.0531 -0.08501,-0.10626 -0.01064,-0.0425 -0.02125,-0.0956 -0.02125,-0.14876 0,-0.20189 0.127508,-0.40377 0.286894,-0.55253 0.212514,-0.21251 0.46753,-0.3294 0.733167,-0.44628 -0.09563,-0.18064 -0.201883,-0.35064 -0.28689,-0.53128 -0.382523,-0.81817 -0.467529,-1.76385 -0.499404,-2.68829 -0.02125,-0.70128 -0.02125,-1.40258 0.07438,-2.08262 0.148756,-1.03068 0.520653,-2.0295 0.988182,-2.96455 0.499404,-0.99881 1.115693,-1.92324 1.870113,-2.72016 -0.701292,-0.55254 -1.402584,-1.09444 -2.018874,-1.76386 -0.637538,-0.69067 -1.190069,-1.50884 -1.710725,-2.157 -0.116882,-0.13813 -0.223137,-0.27627 -0.329396,-0.40377 -0.541906,0.53127 -1.030683,1.10506 -1.508839,1.71072 -0.998808,1.27508 -1.870112,2.65641 -2.433269,4.16525 -0.531282,1.41321 -0.775671,2.93267 -0.977558,4.44152 -0.191262,1.50884 -0.340021,3.00705 -0.478154,4.50527 -0.01062,0.085 0.0425,0.15938 0.138133,0.17 0.340021,0.0425 0.680041,0.085 1.020061,0.14876 0.97756,0.19127 1.965742,0.57379 2.688286,1.2432 0.563158,0.53128 0.956307,1.2432 1.221949,1.97637 0.36127,1.00943 0.467525,2.08262 0.520652,3.14518 0.01064,0.31878 0.02125,0.62692 0.02125,0.94569 1.423837,0.0319 2.847673,0.0637 4.282132,0.0531 2.188881,-0.0212 4.37777,-0.14876 6.56664,-0.22314 1.03069,-0.0319 2.06138,-0.0531 3.09207,-0.085 0.085,-0.79692 0.18063,-1.60447 0.42502,-2.34826 0.30815,-0.93506 0.85005,-1.79574 1.47696,-2.60329 0.61629,-0.78629 1.32821,-1.51946 2.16763,-1.97636 0.98819,-0.53129 2.15701,-0.66942 3.34708,-0.7863 0.11688,-0.0106 0.20189,-0.0956 0.21251,-0.21251 0.0744,-1.21132 0.15939,-2.41202 0.20189,-3.63397 z m -2.1145,-8.50051 c -0.26565,-0.53129 -0.54191,-1.05193 -0.86068,-1.53009 -0.27627,0.38252 -0.57378,0.74379 -0.88193,1.09444 -0.42502,0.47815 -0.89255,0.91381 -1.3707,1.33883 -0.42503,0.38252 -0.86068,0.75442 -1.22195,1.2007 0.0744,0.0637 0.13813,0.13813 0.20189,0.20188 0.76504,-0.38252 1.53009,-0.77567 2.26326,-1.17944 0.63753,-0.36128 1.25382,-0.73317 1.87011,-1.12632 z m -1.38134,-2.1995 c -0.14875,-0.17001 -0.30814,-0.3294 -0.48877,-0.47816 -0.19127,-0.15938 -0.39315,-0.30814 -0.60567,-0.43565 -0.085,0.18064 -0.19126,0.36127 -0.28689,0.5419 -0.4144,0.72255 -0.89255,1.36009 -1.34945,2.01888 -0.47816,0.70129 -0.92443,1.44508 -1.37071,2.17825 0.14876,0.0213 0.28689,0.0425 0.42502,0.085 0.4569,-0.35065 0.87131,-0.79692 1.28571,-1.21133 0.54191,-0.5419 1.08381,-1.05193 1.56197,-1.61509 0.30813,-0.34002 0.57378,-0.70129 0.82879,-1.08381 z m -2.157,-0.60567 c 0.11688,-0.22313 0.23376,-0.44627 0.34002,-0.66941 -0.46753,-0.19126 -0.96693,-0.29752 -1.46634,-0.31877 -0.96694,-0.0319 -1.92324,0.27626 -2.76266,0.74379 -0.85006,0.47815 -1.56197,1.13695 -2.26327,1.80636 -0.0531,0.0531 -0.1275,0.0744 -0.19125,0.0638 -0.0744,-0.0106 -0.13814,-0.0531 -0.17001,-0.11689 -0.53129,-0.94568 -1.08382,-1.88074 -1.91262,-2.53952 -0.17001,-0.13814 -0.35064,-0.25502 -0.53128,-0.3719 -0.08501,0.36127 -0.14876,0.73317 -0.201887,1.09444 -0.116882,0.88193 -0.085,1.77448 -0.0425,2.66704 0.02125,0.43564 0.0425,0.88192 0.06375,1.31757 0.07438,0.0213 0.14876,0.0637 0.212514,0.0956 0.382523,0.23376 0.595033,0.72254 0.733173,1.20069 0.23376,0.75442 0.28689,1.47696 0.34002,2.21013 0.0531,0.88193 0.10625,1.79573 -0.0425,2.66703 -0.19126,1.14758 -0.72254,2.23139 -1.232572,3.29395 -0.286893,0.60566 -0.573784,1.2007 -0.850052,1.79574 1.05194,-0.13814 2.114504,-0.10626 3.166444,0.11688 -0.0319,-0.54192 -0.0744,-1.08382 -0.0956,-1.62573 -0.0319,-0.61628 -0.0425,-1.23257 0.0212,-1.83823 0.0638,-0.58441 0.20189,-1.1582 0.36127,-1.74261 0.34002,-1.2007 0.77567,-2.42264 1.53009,-3.34707 0.38252,-0.46753 0.85005,-0.86067 1.29633,-1.3707 0.26564,-0.30815 0.52066,-0.6588 0.8713,-0.75443 0.0212,0 0.0319,-0.0106 0.0531,-0.0106 0.4569,-0.75442 0.9138,-1.50884 1.41321,-2.24201 0.44627,-0.70128 0.94568,-1.38133 1.36008,-2.12512 z m -0.64816,10.67877 c 0.24438,-0.94569 0.34002,-1.95512 0.20188,-2.87955 -0.0956,-0.63754 -0.30814,-1.2432 -0.75441,-1.82761 -0.29752,-0.40377 -0.71193,-0.79692 -1.10507,-0.74379 -0.22314,0.0319 -0.44628,0.20188 -0.65879,0.38251 -0.60566,0.53129 -1.06256,1.08382 -1.42384,1.72136 -0.43565,0.77567 -0.73317,1.66822 -0.99881,2.55015 -0.15938,0.52066 -0.30814,1.04131 -0.4569,1.56197 -0.0106,0.0531 0,0.10626 0.0319,0.14876 0.0425,0.0425 0.0956,0.0531 0.14876,0.0425 0.18064,-0.0425 0.36127,-0.0637 0.53128,-0.0319 0.39315,0.0744 0.75442,0.41439 0.9138,0.79692 0.19126,0.43565 0.12751,0.93506 -0.0106,1.38133 -0.10626,0.3719 -0.26564,0.72254 -0.42503,1.06256 -0.10625,0.23377 -0.21251,0.45691 -0.31876,0.69067 -0.0212,0.0425 -0.0212,0.0956 0,0.14876 0.0319,0.0425 0.0744,0.0744 0.1275,0.0744 0.20189,0.0212 0.40378,0.0425 0.59504,0.085 0.21251,0.0531 0.42502,0.13814 0.62691,0.22314 0.0638,0.0212 0.12751,0.0106 0.17001,-0.0319 0.20189,-0.19126 0.39315,-0.39315 0.57379,-0.60566 0.5419,-0.63754 0.90318,-1.41321 1.25382,-2.17825 0.38253,-0.83943 0.74379,-1.67885 0.97755,-2.57141 z m -1.4451,-14.07897 c 0.085,-0.0425 0.13814,-0.12751 0.13814,-0.22314 -0.0319,-0.51003 -0.0637,-1.00943 -0.0956,-1.50883 -0.0319,-0.47816 -0.0637,-0.95631 -0.085,-1.42384 0,-0.0425 -0.0213,-0.0956 -0.0531,-0.12751 -0.13814,-0.17001 -0.26564,-0.35065 -0.39315,-0.53128 -0.20189,-0.29752 -0.36127,-0.60566 -0.52065,-0.92443 -0.0425,-0.085 -0.11689,-0.12751 -0.21251,-0.12751 -0.0956,0 -0.17002,0.0425 -0.21252,0.12751 -0.10625,0.20189 -0.21252,0.39315 -0.3294,0.57379 -0.25501,0.39314 -0.57378,0.73316 -0.90318,1.07318 -0.0744,0.0744 -0.085,0.18064 -0.0425,0.27627 0.15938,0.30814 0.31877,0.60566 0.44628,0.92443 0.22313,0.55253 0.34002,1.14756 0.42502,1.7426 0.0319,0.25502 0.0638,0.52066 0.0956,0.77568 0.0106,0.085 0.0531,0.15938 0.13814,0.19126 0.0744,0.0319 0.15938,0.0319 0.23376,-0.0213 0.15939,-0.11688 0.31877,-0.22314 0.48878,-0.31877 0.27626,-0.19126 0.57379,-0.34002 0.88192,-0.47816 z m -2.6989,-6.55602 c 0.12751,-1.21132 0.085,-2.43327 0.0106,-3.65521 -0.11688,-1.72135 -0.29752,-3.44271 -0.74379,-5.11093 -0.31877,-1.19008 -0.76505,-2.34827 -1.29633,-3.4533304 -0.81817,-1.6894799 -1.84886,-3.2408199 -3.187688,-4.6752799 -1.041313,-1.1157 -2.263262,-2.157 -3.697721,-2.34827 -1.16882,-0.17001 -2.475771,0.23376 -3.432078,0.95631 -1.041314,0.78629 -1.678852,1.96574 -2.263262,3.14519 -0.903179,1.84886 -1.668224,3.7295903 -2.061372,5.7059603 -0.329395,1.6576 -0.393149,3.4002 -0.223139,5.08968 0.116882,1.15819 0.350646,2.29513 0.58441,3.43208 0.01062,0.0531 -0.01063,0.10626 -0.05313,0.14876 -0.680041,0.59503 -1.360082,1.20069 -1.933866,1.89136 -0.956307,1.16882 -1.615096,2.60328 -1.84886,4.15462 -0.329395,2.18889 0.17001,4.59028 1.530091,6.24788 0.382523,0.46752 0.839426,0.8713 1.296328,1.27507 0.09563,0.085 0.212512,0.085 0.308143,0 0.818173,-0.71191 1.625722,-1.43446 2.422645,-2.16763 0.340017,-0.31877 0.68004,-0.63753 1.020061,-0.94568 0.297517,-0.26564 0.605659,-0.53128 0.924428,-0.78629 -0.0425,-0.0956 -0.085,-0.20189 -0.116881,-0.30815 -0.212515,-0.58441 -0.414398,-1.32821 -0.138134,-1.32821 0.127508,0 0.340021,0.13814 0.51003,0.2869 0.265642,0.22313 0.425028,0.46753 0.563158,0.73317 1.030687,-0.75442 2.146381,-1.39196 3.378952,-1.80636 0.07438,-0.0212 0.159386,-0.0531 0.233766,-0.0744 0,-0.39315 0,-0.77567 0,-1.15819 -0.01064,-0.41441 -0.02125,-0.81817 0.02125,-1.2857 0.03189,-0.29752 0.085,-0.61629 0.329396,-0.7438 0.138129,-0.0744 0.318768,-0.085 0.446276,-0.0212 0.233763,0.11688 0.191262,0.51003 0.180635,0.83942 -0.02125,0.38252 -0.02125,0.69067 -0.02125,1.00944 -0.01064,0.36127 -0.03189,0.74379 -0.05313,1.12631 0.903175,-0.18063 1.816981,-0.21251 2.688281,0 0.116886,-0.38252 0.286894,-0.78629 0.552536,-1.34945 0.201895,-0.4144 0.456905,-0.92443 0.616285,-0.7863 0.0744,0.0638 0.12751,0.25502 0.15939,0.43565 0.0637,0.47816 -0.0956,0.83943 -0.22314,1.21133 -0.085,0.25501 -0.15938,0.53128 -0.21251,0.79692 0.47815,0.22314 0.93505,0.52065 1.33883,0.86067 0.47815,0.39315 0.89255,0.83943 1.30695,1.29633 0.0531,0.0638 0.13814,0.0956 0.22314,0.0744 0.085,-0.0212 0.14876,-0.0744 0.17001,-0.15938 0.11688,-0.39315 0.21251,-0.79693 0.22313,-1.19008 0.0213,-0.76504 -0.26563,-1.53009 -0.5844,-2.26326 -0.29752,-0.66941 -0.60566,-1.30695 -1.05194,-1.88073 -0.52065,-0.66942 -1.22195,-1.2432 -1.81699,-1.67885 -0.371895,-0.26564 -0.690664,-0.47815 -1.232569,-0.68004 -0.595037,-0.21252 -1.434463,-0.40378 -1.381336,-0.91381 0.01064,-0.085 0.05313,-0.18063 0.10626,-0.24438 0.116881,-0.11689 0.308142,-0.0956 0.499404,-0.0744 0.669412,0.0956 1.370704,0.2869 1.976371,0.59504 0.76504,0.39315 1.36008,0.96694 2.01887,1.49821 0.3719,0.30815 0.76505,0.59504 1.1582,0.87131 0.0637,0.0425 0.14875,0.0531 0.22314,0.0319 0.0744,-0.0319 0.1275,-0.085 0.14875,-0.17001 0.15939,-0.81818 0.31877,-1.63635 0.40378,-2.45453 z m -3.93149,19.38116 c 0.2869,-1.09444 0.29752,-2.18888 -0.0637,-3.53834 -0.17001,-0.61629 -0.403772,-1.2857 -0.839423,-1.38133 -0.340021,-0.0744 -0.775672,0.19126 -1.147568,0.46753 -0.658791,0.51003 -1.073192,1.07319 -1.455715,1.68948 -0.595033,0.94568 -1.158191,1.98698 -1.508839,3.0708 -0.180635,0.55254 -0.308143,1.10507 -0.43565,1.66823 -0.01064,0.0637 0.01064,0.11688 0.06375,0.15939 0.05313,0.0319 0.116882,0.0425 0.170009,0.0106 0.106259,-0.0638 0.22314,-0.11689 0.340022,-0.13813 0.244389,-0.0425 0.531283,0.0319 0.733167,0.18063 0.276268,0.21251 0.393149,0.57378 0.446276,0.92442 0.04251,0.27627 0.04251,0.55254 0.04251,0.81819 -0.02125,0.57378 -0.07438,1.14756 -0.138134,1.73197 -0.01064,0.0425 0.01064,0.0956 0.0425,0.12751 0.03189,0.0319 0.08501,0.0531 0.127508,0.0425 0.265641,-0.0319 0.520656,-0.0531 0.775672,-0.085 0.244388,-0.0319 0.478155,-0.0637 0.722544,-0.0956 0.05313,-0.0106 0.085,-0.0319 0.116881,-0.0744 0.06375,-0.0956 0.116881,-0.2019 0.180635,-0.29753 0.36127,-0.66941 0.520657,-1.43446 0.75442,-2.16763 0.308142,-1.06256 0.80755,-2.08262 1.073185,-3.11331 z m -1.253821,-10.12623 c 0.02125,-0.37189 0.06375,-0.74379 0.116881,-1.10507 -0.244388,-0.0744 -0.488777,-0.13813 -0.733166,-0.17 -0.488782,-0.0638 -0.988186,-0.0319 -1.476964,0.0744 0.02125,0.22314 0.0425,0.44628 0.06375,0.6588 0.08501,0.75441 0.223136,1.51946 0.456903,2.242 0.318769,0.93506 0.828799,1.79573 1.33883,2.65641 0.085,-0.0212 0.170009,-0.0319 0.255015,-0.0425 0,-0.55253 -0.01064,-1.10506 -0.02125,-1.64697 -0.01064,-0.88193 -0.05313,-1.75323 0,-2.66703 z m -1.731978,5.15343 c 0.22314,-0.19126 0.467529,-0.36127 0.73317,-0.4994 -0.244389,-0.63754 -0.499404,-1.26445 -0.765045,-1.89137 -0.170014,-0.39314 -0.350648,-0.77566 -0.510031,-1.17944 -0.318769,-0.80755 -0.541909,-1.6576 -0.648164,-2.5289 -0.510031,0.19126 -1.009435,0.45691 -1.476964,0.74379 -0.488778,0.30814 -0.935054,0.64817 -1.360083,1.00944 0.233767,0.36127 0.499409,0.71191 0.765046,1.05194 0.286894,0.37189 0.573784,0.74379 0.871305,1.11568 0.456903,0.58442 0.924428,1.17945 1.519464,1.62573 0.265642,0.20189 0.563159,0.3719 0.871302,0.55253 z m -5.20656,18.80737 c 0.0425,-0.74379 0.01064,-1.51946 -0.191261,-2.25263 -0.22314,-0.79692 -0.626912,-1.54071 -1.147568,-2.16762 -0.488778,-0.60567 -1.083815,-1.09445 -1.731979,-1.5726 -0.584409,-0.42503 -1.232573,-0.85005 -1.901988,-0.8713 -0.393148,-0.0106 -0.796922,0.10625 -1.190071,0.22313 -0.711917,0.20189 -1.402583,0.40378 -2.135752,0.34002 -0.595036,-0.0425 -1.211323,-0.25501 -1.742604,-0.10625 -0.329395,0.0956 -0.626912,0.31877 -0.935056,0.55253 -0.244389,0.18064 -0.499405,0.36127 -0.743794,0.55253 -0.191262,0.14876 -0.371898,0.29752 -0.552533,0.4569 -0.07438,0.0638 -0.116882,0.15939 -0.106257,0.25502 0.01062,0.0956 0.05313,0.19126 0.138134,0.24439 0.07438,0.0531 0.148758,0.10626 0.223138,0.15939 0.680041,0.53128 1.136943,1.30694 1.561968,2.08262 0.435651,0.7863 0.8288,1.5726 1.16882,2.36952 0.34002,0.79692 0.626913,1.59384 0.966933,2.46514 0.244389,0.61629 0.520655,1.27507 1.051937,1.55134 0.382523,0.20189 0.892554,0.20189 1.328204,0.0744 0.382523,-0.10625 0.701292,-0.32939 0.99881,-0.58441 0.255015,-0.22313 0.488779,-0.47815 0.648164,-0.77567 0.223138,-0.40377 0.308143,-0.8713 0.318768,-1.3282 0.01063,-0.48878 -0.06375,-0.97756 -0.180636,-1.45571 -0.159384,-0.68004 -0.403773,-1.33883 -0.690665,-1.98699 -0.24439,-0.54191 -0.520656,-1.06257 -0.680041,-1.62572 -0.06375,-0.21252 -0.106256,-0.42504 -0.138133,-0.63754 -0.02125,-0.10626 0.03188,-0.20189 0.138133,-0.2444 0.09563,-0.0425 0.201887,-0.0212 0.276266,0.0638 0.350646,0.42503 0.690667,0.8713 0.956308,1.36008 0.276266,0.51003 0.488779,1.06256 0.658789,1.59385 0.276266,0.81816 0.488779,1.59384 0.839425,2.50764 0.255015,0.65879 0.584411,1.40259 1.19007,1.49822 0.276268,0.0425 0.605663,-0.0425 0.839425,-0.22314 0.276268,-0.21251 0.403776,-0.56315 0.510031,-0.90318 0.14876,-0.54191 0.223136,-1.07318 0.255015,-1.6151 z m -10.551254,2.36952 c 0,-0.72254 -0.02125,-1.44508 -0.148758,-2.14638 -0.106257,-0.57378 -0.297518,-1.14756 -0.563159,-1.66822 -0.350646,-0.66942 -0.8288,-1.26445 -1.402583,-1.76386 -0.4781542,-0.4144 -1.0200612,-0.75442 -1.5938452,-0.98818 -0.871302,-0.35065 -1.838235,-0.4569 -2.783916,-0.30815 -0.616287,0.0956 -1.232574,0.29752 -1.710727,0.68004 -0.467528,0.36128 -0.818174,0.87131 -1.062564,1.41321 -0.244389,0.52066 -0.393148,1.07319 -0.552533,1.62573 -0.106256,0.31877 -0.201887,0.63754 -0.276266,1.03068 -0.06375,0.3719 -0.106257,0.80756 0.085,0.97756 0.159384,0.14876 0.488779,0.10626 0.818174,0.085 0.425025,-0.0213 0.85005,-0.0106 1.041312,-0.25501 0.116882,-0.15939 0.138133,-0.40378 0.191261,-0.63755 0.04251,-0.19126 0.106256,-0.37189 0.180636,-0.5419 0.0425,-0.085 0.116882,-0.13814 0.212513,-0.13814 0.09563,0 0.180635,0.0531 0.212512,0.14876 0.170011,0.40378 0.34002,0.81818 0.51003,1.22195 0.180636,0.40378 0.361272,0.79692 0.552534,1.2007 0.382523,0.7863 0.807548,1.60447 1.455711,2.12513 0.531282,0.43564 1.221949,0.66941 1.965743,0.78629 0.6375378,0.10626 1.3069522,0.12751 1.8169832,-0.18064 0.414399,-0.25501 0.722543,-0.72254 0.881927,-1.21132 0.159385,-0.46752 0.17001,-0.96693 0.17001,-1.45571 z m 12.814512,-6.03536 c -0.06375,1.42383 2.358891,2.68829 5.408451,2.8158 3.04955,0.1275 5.56783,-0.91381 5.63158,-2.34827 0.0638,-1.42384 -2.35889,-2.68828 -5.408443,-2.81579 -3.038931,-0.12751 -5.567834,0.92443 -5.631588,2.34826 z"
       style="display:inline;fill:#1a1a1a;stroke-width:0.106256" />
  </g>
</svg>
