<?xml version="1.0" encoding="UTF-8" standalone="no"?>
<!-- Created with Inkscape (http://www.inkscape.org/) -->

<svg
   width="109.99999mm"
   height="62mm"
   viewBox="0 0 109.99999 62"
   version="1.1"
   id="svg1"
   xml:space="preserve"
   inkscape:export-filename="waltdisney-logo.svg"
   inkscape:export-xdpi="96"
   inkscape:export-ydpi="96"
   xmlns:inkscape="http://www.inkscape.org/namespaces/inkscape"
   xmlns:sodipodi="http://sodipodi.sourceforge.net/DTD/sodipodi-0.dtd"
   xmlns="http://www.w3.org/2000/svg"
   xmlns:svg="http://www.w3.org/2000/svg"><sodipodi:namedview
     id="namedview1"
     pagecolor="#ffffff"
     bordercolor="#000000"
     borderopacity="0.25"
     inkscape:showpageshadow="2"
     inkscape:pageopacity="0.0"
     inkscape:pagecheckerboard="0"
     inkscape:deskcolor="#d1d1d1"
     inkscape:document-units="mm" /><defs
     id="defs1" /><g
     inkscape:label="Capa 1"
     inkscape:groupmode="layer"
     id="layer1"><path
       id="path1"
       style="opacity:1;fill:#ffffff;fill-opacity:1;stroke-width:0.153163"
       d="m 61.825167,0.64233805 -0.638721,0.162264 c -0.351326,0.0891222 -0.877139,0.22194325 -1.168921,0.29507245 -0.291773,0.073125 -0.530717,0.1433928 -0.530717,0.1560628 0,0.012698 0.511631,0.1174815 1.136882,0.2330607 0.625242,0.1155732 1.151557,0.212274 1.169437,0.214974 0.01787,0.00279 0.03204,-0.2348186 0.03204,-0.5281332 z m 0.0098,2.16110845 -1.758549,3.3693033 c -0.967314,1.8531254 -1.759065,3.4029444 -1.759065,3.4442342 0,0.041289 0.0324,0.1088485 0.07183,0.1503785 0.06826,0.071864 0.229919,0.075532 3.38894,0.074931 1.824397,-3.4e-4 3.338493,-0.014326 3.364653,-0.031006 0.02621,-0.016685 0.07187,-0.07386 0.101286,-0.127124 0.0488,-0.088288 -0.0706,-0.3397509 -1.347205,-2.8484049 -0.770219,-1.513552 -1.549229,-3.040462 -1.73116,-3.3925578 z M 55.55318,8.4118896 c -0.97667,0.016785 -1.961464,0.04856 -2.389518,0.0863 -4.227666,0.3727452 -7.946885,1.2774914 -11.611178,2.8241164 -4.162685,1.757005 -8.702975,4.831909 -12.125358,8.211385 -1.56542,1.545796 -3.340237,3.857815 -4.715991,6.143811 -0.505827,0.840501 -1.385529,2.539002 -2.354895,4.54701 -0.810216,1.67833 -0.904871,1.890158 -1.261938,2.823083 -0.340426,0.889416 -0.545946,1.367728 -0.904855,2.105815 l -0.323494,0.664559 0.571024,0.263033 c 0.314076,0.144493 0.58374,0.264133 0.59893,0.266133 0.01518,0.002 0.04085,-0.06574 0.05684,-0.150895 0.139566,-0.742547 0.507902,-2.113628 0.827857,-3.079915 0.811361,-2.450383 2.411078,-5.694554 3.972884,-8.057906 0.713305,-1.079387 1.770279,-2.4946 2.559534,-3.427181 2.882873,-3.406432 8.09494,-7.273565 12.528434,-9.295557 3.983163,-1.81661 8.123446,-2.8921554 12.535152,-3.2556148 1.209941,-0.099677 2.889291,-0.156244 3.768245,-0.127124 l 0.80822,0.026872 0.148311,-0.2666504 0.148828,-0.2666503 -0.495577,-0.029456 c -0.39584,-0.02358 -1.364788,-0.021949 -2.341459,-0.00517 z m 10.004558,1.0293946 c -0.0056,0.00575 0.0084,0.018243 0.02429,0.034106 0.07752,0.077148 0.06702,0.3274023 -0.01757,0.4165121 -0.03954,0.04167 -0.06406,0.08105 -0.05426,0.08785 0.0098,0.00681 0.388219,0.092409 0.840776,0.1901697 5.051892,1.091296 10.11642,3.4326 14.161409,6.546887 1.357536,1.045183 3.270958,2.784378 4.316016,3.923275 5.872294,6.399578 8.949289,14.351117 8.819617,22.79034 l -0.01912,1.260905 h 0.266651 0.26665 l 0.02842,-0.56379 c 0.07565,-1.503358 0.02347,-3.627356 -0.125574,-5.092712 C 93.376967,32.269573 90.470942,25.756209 85.839722,20.598743 80.838354,15.029058 74.112251,11.19442 66.62074,9.6417887 65.769168,9.4652941 65.574681,9.4240372 65.557756,9.4412842 Z m -1.004074,0.6903968 -2.761071,0.01034 -2.760555,0.01085 -0.01189,0.868164 -0.01137,0.868164 -0.347782,0.366902 c -0.191123,0.20182 -0.338805,0.387252 -0.328145,0.411862 0.01064,0.02461 0.158095,0.35895 0.327111,0.743107 l 0.306958,0.698665 v 0.983919 0.98392 h 2.793628 2.793111 v -0.972551 -0.97255 l 0.265617,-0.54467 c 0.146141,-0.299564 0.311113,-0.642046 0.366903,-0.760677 l 0.101803,-0.215491 -0.36742,-0.367936 -0.366903,-0.367419 v -0.872299 z m -11.71453,2.737818 -1.158586,0.293005 c -0.637151,0.161272 -1.158585,0.30291 -1.158585,0.31471 0,0.0118 0.521434,0.115271 1.158585,0.22996 l 1.158586,0.208772 0.01292,-0.260966 c 0.007,-0.143484 0.007,-0.379205 0,-0.523482 z m 0.101803,2.506823 c -0.02428,-6.14e-4 -0.253215,0.503639 -0.253215,0.557589 0,0.01111 0.118604,0.02015 0.264067,0.02015 0.296791,0 0.28775,0.02984 0.113688,-0.360702 -0.05296,-0.118837 -0.10924,-0.216653 -0.12454,-0.217041 z m 0.418579,1.155485 -0.411861,0.0021 -0.411862,0.001 -0.788582,1.619023 -0.788582,1.619022 0.08475,0.369487 c 0.04675,0.203233 0.08527,0.39369 0.08527,0.42323 0,0.0389 -0.08247,0.05374 -0.299206,0.05374 h -0.299724 l 0.146761,0.391708 c 0.08071,0.215294 0.17582,0.456998 0.21084,0.536918 l 0.06356,0.145211 h 7.321 7.321001 v -1.961121 -1.961637 h -0.519349 -0.519865 v -0.619084 -0.619601 h -2.793111 -2.793628 v 0.618051 0.61805 l -0.463537,0.01137 -0.464055,0.01188 -0.139526,0.427364 c -0.07676,0.235023 -0.148157,0.435431 -0.158647,0.445451 -0.0105,0.01001 -0.20196,-0.270382 -0.425297,-0.623218 -0.403536,-0.637528 -0.406174,-0.640844 -0.462504,-0.528133 -0.03118,0.06238 -0.372485,0.782373 -0.75861,1.599902 l -0.702282,1.486215 -0.399459,0.01188 c -0.469442,0.01394 -0.451743,0.04352 -0.296623,-0.494026 l 0.102836,-0.357601 -0.719853,-1.613339 z M 69.0578,17.661454 67.834619,17.97358 c -0.672693,0.171653 -1.194125,0.317511 -1.158585,0.324011 0.03553,0.0065 0.551753,0.102371 1.147216,0.212907 0.595477,0.110537 1.116926,0.202755 1.158586,0.205155 0.06849,0.0041 0.07596,-0.04618 0.07596,-0.524515 z m -27.30686,0.563273 c -0.06414,0 -2.322443,0.571176 -2.345593,0.593246 -0.0063,0.006 0.49975,0.104902 1.124479,0.220141 0.624721,0.115235 1.170152,0.211858 1.211812,0.214458 0.06839,0.0042 0.07596,-0.04579 0.07596,-0.511597 0,-0.436458 -0.01044,-0.516248 -0.06666,-0.516248 z m 27.325981,1.702222 c -0.0063,0.0062 -0.150489,0.378765 -0.320394,0.827857 -0.169911,0.449084 -0.319853,0.843985 -0.333313,0.877465 -0.02098,0.05217 0.07919,0.06098 0.699182,0.06098 0.561432,0 0.719109,-0.01165 0.702799,-0.05168 -0.179045,-0.438123 -0.739674,-1.723024 -0.748274,-1.714624 z m -27.288257,0.721403 -0.22996,0.408761 c -0.126362,0.224831 -0.277367,0.48795 -0.335897,0.58446 l -0.106454,0.175183 h 0.632003 c 0.347641,0 0.631136,-0.01346 0.629936,-0.03049 -0.0012,-0.01703 -0.134607,-0.280153 -0.296106,-0.58446 z m 33.158699,0.51263 -0.205672,0.05684 c -0.113143,0.0313 -0.624783,0.162048 -1.136881,0.290939 -0.512112,0.128891 -0.95477,0.246849 -0.98392,0.261999 -0.02917,0.01515 0.467784,0.122597 1.104326,0.238745 0.636534,0.116149 1.171721,0.213508 1.189591,0.216008 0.01787,0.0025 0.03256,-0.236212 0.03256,-0.5302 z m -34.033581,0.984436 -1.265556,2.013831 c -0.6959,1.10756 -1.272909,2.027806 -1.282609,2.044836 -0.0097,0.01703 1.416458,0.03101 3.169315,0.03101 h 3.186886 L 44.289286,25.440308 C 44.051509,25.003155 43.554989,24.088107 43.185994,23.40684 l -0.67076,-1.238684 -0.800468,-0.01137 z m 10.272758,0.04341 0.09974,0.421163 c 0.136167,0.57763 0.202682,1.322176 0.167432,1.870171 -0.03172,0.493393 -0.154518,1.246283 -0.254248,1.558561 l -0.06253,0.19637 h 7.89926 c 4.344594,0 7.899259,-0.0065 7.899259,-0.01447 0,-0.008 -0.104199,-0.226425 -0.232027,-0.485242 -0.523819,-1.060582 -0.881645,-2.176517 -1.087789,-3.392041 l -0.02636,-0.154513 h -7.201111 z m 17.029451,0.02067 -0.399975,1.031978 c -0.220095,0.567724 -0.400643,1.054508 -0.402043,1.081588 -9.99e-4,0.02708 0.11485,0.175617 0.257349,0.330213 l 0.258899,0.281119 5.16e-4,0.629419 0.001,0.629936 h 1.320849 1.32085 V 25.57105 24.947832 l 0.259933,-0.299206 0.259415,-0.299207 -0.537435,-1.070219 -0.536918,-1.069702 h -0.901237 z m -19.555912,0.47594 c -0.02152,-1.47e-4 -1.256678,3.459438 -1.256254,3.518648 1.21e-4,0.01704 0.548316,0.03101 1.218013,0.03101 h 1.217497 l -0.02481,-0.09302 c -0.07575,-0.281166 -1.136281,-3.456513 -1.154451,-3.456637 z m 26.33431,0.979785 c -0.02494,-0.02652 -1.088156,2.415902 -1.086756,2.497522 2.04e-4,0.01704 0.447276,0.03101 0.993221,0.03101 h 0.992705 l -0.435116,-1.249019 c -0.239306,-0.686953 -0.448284,-1.262759 -0.464054,-1.279509 z m -41.923023,2.619479 c -0.01369,-0.005 -0.03203,-6.16e-4 -0.05633,0.0052 -0.594753,0.140749 -2.318243,0.58698 -2.307353,0.59738 0.0079,0.0075 0.498381,0.103461 1.090373,0.213423 0.591991,0.109965 1.129766,0.202022 1.195276,0.204122 l 0.119373,0.0036 v -0.520899 c 0,-0.389644 -2.73e-4,-0.487784 -0.04134,-0.502811 z m 37.41167,0.403076 -1.262972,0.01085 -1.262972,0.01137 -0.131775,0.172599 c -0.07246,0.09513 -0.148485,0.1743 -0.168465,0.1757 -0.02003,0.0014 -0.138603,-0.08126 -0.264066,-0.183452 l -0.22841,-0.185518 H 57.20426 47.244145 l -0.382923,0.902787 -0.382922,0.902788 -0.775147,0.02997 c -0.426114,0.0163 -0.784067,0.0205 -0.795817,0.0093 -0.01174,-0.01119 0.157454,-0.40775 0.376205,-0.881084 0.218752,-0.47334 0.407296,-0.883715 0.419096,-0.912089 0.01709,-0.04105 -0.741453,-0.05168 -3.707268,-0.05168 -2.050958,0 -3.728971,0.01446 -3.728971,0.03256 0,0.01809 0.03977,0.206796 0.08837,0.419096 0.1588,0.693685 0.180131,1.547478 0.06046,2.389001 l -0.03101,0.219625 16.75505,-0.02894 c 9.215184,-0.01574 16.760652,-0.03294 16.767452,-0.03824 0.0068,-0.0053 -0.10016,-0.165203 -0.237712,-0.355534 -0.478738,-0.662459 -0.908436,-1.590873 -1.139465,-2.462899 z m 3.186886,0.04237 -0.5271,1.486731 -0.527099,1.486215 h 2.226737 c 1.224863,0 2.227254,-0.01488 2.227254,-0.03307 0,-0.01819 -0.232038,-0.682228 -0.515214,-1.475879 l -0.514697,-1.443323 -1.184941,-0.01033 z m 5.956742,1.763717 c -0.02472,-0.02586 -0.234334,0.448325 -0.502811,1.137398 -0.0258,0.06616 0.01382,0.07183 0.474389,0.07183 0.27647,0 0.502812,-0.0087 0.502812,-0.01964 0,-0.04275 -0.4451,-1.158961 -0.47439,-1.189591 z m -46.454012,0.160197 -0.246496,0.444417 c -0.135652,0.244356 -0.246497,0.452414 -0.246497,0.462504 0,0.01007 0.194425,0.0186 0.432015,0.0186 h 0.432015 L 33.419666,29.259196 C 33.351456,29.0832 33.267907,28.875152 33.234147,28.796692 Z m 45.810641,1.542541 -0.40256,0.444935 c -0.221169,0.24471 -0.409999,0.454254 -0.420129,0.465604 -0.01008,0.01136 -0.226342,-0.188429 -0.480591,-0.4439 L 77.217509,30.198674 H 57.741695 c -10.711557,0 -19.475297,0.01496 -19.475297,0.03307 0,0.01811 -0.146007,0.756671 -0.324528,1.641244 -0.178525,0.884573 -0.324924,1.622146 -0.325045,1.639176 -1.14e-4,0.01702 9.870868,0.03101 21.935096,0.03101 12.064226,0 21.934115,-0.0046 21.933544,-0.01033 -6.46e-4,-0.0057 -0.27918,-0.753553 -0.619083,-1.661914 l -0.61805,-1.651579 -0.63252,-0.01137 z m -46.498454,0.08578 -0.649573,1.143083 c -0.357281,0.62862 -0.763105,1.343684 -0.901754,1.58905 l -0.252181,0.445968 h 2.298568 2.298568 l -0.05426,-0.121956 c -0.02984,-0.06708 -0.366138,-0.781503 -0.747242,-1.588017 l -0.692981,-1.466577 -0.649572,-5.17e-4 z m -2.301668,3.894853 -1.144633,1.504818 c -0.629192,0.827221 -1.150304,1.519947 -1.158586,1.540474 -0.0079,0.02092 2.751127,0.03669 6.486426,0.03669 h 6.500895 l 0.24753,-0.09819 c 1.059903,-0.420937 2.670383,-0.8044 4.03748,-0.961181 0.874563,-0.100241 2.687398,-0.100487 3.551204,-5.17e-4 0.784329,0.09078 1.7607,0.274528 2.474784,0.465604 l 0.547771,0.146245 0.405143,-0.232544 c 1.098703,-0.630745 2.059206,-0.939754 3.289722,-1.057817 0.892701,-0.08565 2.27199,0.07792 3.182234,0.376721 0.579489,0.190223 1.46053,0.624947 1.92288,0.949297 0.226277,0.158731 0.451802,0.316844 0.501262,0.350882 0.0795,0.05469 1.453451,0.06036 11.807548,0.05116 L 84.551945,37.238548 83.160299,35.7482 81.768136,34.258368 66.134465,34.231498 c -8.598591,-0.01485 -20.205456,-0.03342 -25.792741,-0.04082 z M 18.776115,35.7482 c -0.246064,0.02994 -0.38835,0.160985 -0.387057,0.383439 5.67e-4,0.08759 0.129899,0.263625 0.525033,0.714685 0.803579,0.917315 1.044235,1.26129 1.488798,2.126485 1.149422,2.236956 1.43233,3.155738 1.48053,4.810042 0.109049,3.741752 -1.12109,6.662151 -3.537252,8.397421 -1.069268,0.767941 -1.809079,1.063152 -2.686141,1.071252 -0.925896,0.0085 -1.576234,-0.421728 -1.706356,-1.129647 -0.02596,-0.141211 -0.01576,-0.155117 0.282154,-0.391707 0.701596,-0.557204 1.72308,-1.663989 2.292883,-2.484603 0.585321,-0.842977 0.890033,-1.466351 1.107426,-2.262911 0.114971,-0.421317 0.124079,-0.509443 0.123506,-1.218014 -7.11e-4,-0.69575 -0.01119,-0.80087 -0.116788,-1.179773 -0.334031,-1.198556 -0.697969,-1.647397 -1.545642,-1.906343 -0.297679,-0.09097 -0.382594,-0.0987 -0.891936,-0.08165 -0.455439,0.01524 -0.621043,0.03875 -0.866613,0.121957 -1.766431,0.598533 -2.880922,1.712106 -3.461288,3.458703 -0.276093,0.830921 -0.417424,1.580417 -0.443384,2.353862 -0.02217,0.659777 -0.01584,0.727118 0.198955,2.142505 0.252092,1.661155 0.263449,1.528009 -0.144178,1.717724 -0.303162,0.14112 -0.5488994,0.163682 -0.935343,0.08682 C 8.7686614,52.322349 8.1030919,51.846423 7.7421631,51.183439 7.4612365,50.667408 7.4144877,50.404937 7.4140177,49.336523 c -4.59e-4,-1.016507 0.037805,-1.31509 0.3281454,-2.56005 0.4193328,-1.798044 0.993062,-3.296645 1.7373616,-4.537708 0.6574283,-1.096217 1.4864933,-2.08961 2.6556523,-3.183268 0.508176,-0.475358 0.753241,-0.79075 0.752925,-0.968416 -2.8e-4,-0.180537 -0.15091,-0.364046 -0.343648,-0.419096 -0.15613,-0.0446 -0.213257,-0.03771 -0.543119,0.0646 -0.455969,0.141412 -0.981441,0.425005 -1.60352,0.866097 -1.315865,0.933001 -1.9535721,1.565876 -2.7285157,2.706811 -0.944957,1.391252 -1.6230069,2.854747 -2.1182169,4.572331 -0.6830892,2.369244 -0.7488568,4.052315 -0.2175578,5.577437 0.1900894,0.545659 0.4326944,0.938338 0.7932332,1.28571 0.496443,0.47829 1.0787019,0.799717 1.9564697,1.07952 0.566183,0.180451 1.0607672,0.245738 1.4862142,0.196888 0.1470852,-0.01688 0.5476073,-0.11609 0.8898683,-0.220659 0.34226,-0.104557 0.703068,-0.200473 0.802018,-0.213423 l 0.179834,-0.02377 0.439767,0.469222 c 1.038613,1.108077 1.826562,1.576372 3.018937,1.794723 0.415924,0.07617 1.498557,0.04461 2.145605,-0.06253 1.702408,-0.281895 3.183304,-1.044501 4.529439,-2.332157 0.708064,-0.677299 1.238983,-1.313612 1.554428,-1.862935 l 0.243912,-0.424781 0.262,0.07596 c 0.144203,0.04164 0.269736,0.08255 0.278536,0.09095 0.0089,0.0084 -0.122391,0.432015 -0.291455,0.941545 -0.275351,0.829913 -0.307609,0.963047 -0.311609,1.277441 -0.005,0.40795 0.04488,0.59569 0.240812,0.906922 0.175002,0.277977 0.412762,0.440961 0.731222,0.501261 0.487882,0.09238 0.958298,-0.147845 1.185457,-0.605648 0.143642,-0.289467 0.786235,-1.879842 0.821655,-2.033467 l 0.02739,-0.118339 0.874882,-0.02739 c 0.481257,-0.01487 1.013067,-0.02681 1.181323,-0.02687 l 0.305924,-5.16e-4 0.04961,0.504878 c 0.04701,0.476386 0.06194,0.528637 0.264066,0.925009 0.241114,0.47281 0.464853,0.736255 0.719853,0.846976 0.224535,0.09779 0.399464,0.09617 0.572058,-0.0041 0.460211,-0.26752 0.584084,-0.948748 0.496094,-2.726448 -0.04174,-0.843122 -0.059,-0.964394 -0.352433,-2.415357 -0.599833,-2.965991 -0.723413,-3.435348 -1.10846,-4.222998 -0.176904,-0.361871 -0.198658,-0.388187 -0.393257,-0.470255 -0.184721,-0.07791 -0.233271,-0.08253 -0.465605,-0.04134 -0.383495,0.06799 -0.614254,0.224013 -0.891935,0.602031 -0.131005,0.178335 -0.449882,0.568219 -0.708484,0.866097 -0.714752,0.82328 -1.623469,2.186726 -2.199866,3.301607 l -0.23151,0.448552 -0.294039,-0.01964 c -0.161625,-0.01076 -0.303713,-0.02883 -0.315743,-0.04031 -0.01205,-0.01149 0.04515,-0.232086 0.127124,-0.490409 0.785628,-2.475792 0.81527,-5.345043 0.07803,-7.591785 -0.649038,-1.977955 -1.257035,-2.886082 -3.22771,-4.820378 -0.565749,-0.55531 -0.85837,-0.763622 -1.276924,-0.908471 -0.170595,-0.05904 -0.326856,-0.09658 -0.465088,-0.113689 -0.103675,-0.01283 -0.197032,-0.01415 -0.279053,-0.0041 z m 27.468607,0.810286 c -0.702318,2.03e-4 -1.377189,0.0145 -1.646411,0.04237 -1.66056,0.171927 -3.158775,0.721723 -4.354773,1.598352 -0.301688,0.221132 -0.417844,0.387752 -0.418062,0.599963 -5.79e-4,0.558978 0.7695,0.887053 1.561662,0.665076 0.40519,-0.113539 0.819783,-0.344095 0.897103,-0.498678 0.0656,-0.131129 0.06427,-0.141018 -0.03152,-0.238228 -0.07281,-0.07388 -0.154518,-0.104688 -0.30024,-0.113688 l -0.199988,-0.0124 0.224793,-0.113171 c 0.420721,-0.211495 0.802793,-0.281477 1.730643,-0.316777 1.76948,-0.06733 3.396259,0.07955 4.977474,0.448552 2.374583,0.554133 6.765987,2.156314 8.486304,3.096452 1.516514,0.828757 2.64765,1.673752 4.115511,3.074231 1.147351,1.094672 1.572694,1.626051 2.052588,2.565218 0.557424,1.090884 0.655491,1.946952 0.328145,2.862874 -0.340046,0.951503 -0.972133,1.566402 -2.210717,2.14974 -2.193782,1.033205 -4.341209,1.378997 -7.080705,1.139982 -0.775601,-0.06767 -1.643635,-0.169437 -1.666565,-0.195337 -0.0062,-0.007 -0.0215,-1.159553 -0.03411,-2.561084 l -0.02274,-2.548165 0.179317,0.01964 c 1.652287,0.180431 2.388749,0.300806 3.644222,0.596346 0.895774,0.210865 1.83316,0.476682 1.90221,0.539502 0.06331,0.05761 -0.167487,0.336952 -0.475424,0.575159 -0.313967,0.242857 -0.365352,0.311704 -0.365352,0.490409 0,0.180273 0.27543,0.391038 0.630452,0.482658 0.54344,0.140249 1.068901,0.0095 1.652096,-0.411344 0.45594,-0.328974 0.709731,-0.715369 0.799951,-1.21698 0.104619,-0.581655 -0.134967,-1.196699 -0.662492,-1.699638 -0.262786,-0.25055 -0.383662,-0.326447 -0.938444,-0.588078 -1.246703,-0.587937 -2.152731,-0.819467 -3.993554,-1.021126 -0.416837,-0.04565 -1.090789,-0.09464 -1.497583,-0.109038 l -0.73949,-0.02636 -0.05374,-0.602547 c -0.100459,-1.132202 -0.335539,-2.145198 -0.626318,-2.698026 -0.147413,-0.280275 -0.217179,-0.365215 -0.390157,-0.475424 -0.322466,-0.205464 -0.637921,-0.170015 -0.803569,0.08992 -0.09963,0.156354 -0.359485,0.926394 -0.454235,1.345138 -0.03854,0.170319 -0.146906,0.843742 -0.240296,1.496549 -0.09339,0.652803 -0.18158,1.205559 -0.19637,1.228349 -0.01478,0.02278 -0.08334,0.04134 -0.151929,0.04134 -0.213933,0 -1.336142,0.197791 -1.970422,0.347266 -0.825815,0.194608 -1.41074,0.393559 -2.078426,0.7059 -0.618471,0.289317 -0.951898,0.496248 -1.380278,0.857312 -0.796462,0.671322 -0.768627,1.571627 0.07803,2.517676 0.336019,0.375467 1.353641,1.297547 1.84795,1.674833 0.504754,0.38527 0.672283,0.489254 2.219502,1.371493 l 1.341004,0.764294 0.141077,0.593762 c 0.0776,0.326548 0.174797,0.67801 0.216007,0.780831 0.100104,0.249918 0.384882,0.513041 0.67231,0.621668 h 5.17e-4 c 0.427135,0.160984 0.964887,0.05347 1.338937,-0.268718 0.191024,-0.164547 0.431442,-0.523305 0.432015,-0.644922 4.7e-4,-0.08363 0.03975,-0.08639 0.454752,-0.02894 0.585187,0.08099 2.086449,0.200844 2.858224,0.227894 1.794046,0.06291 3.662438,-0.206036 5.213118,-0.750342 1.748826,-0.613871 3.590005,-1.871946 4.479313,-3.060795 0.818398,-1.094058 1.126396,-1.894083 1.124996,-2.921786 -8.83e-4,-0.653044 -0.09047,-1.073627 -0.380338,-1.778703 -0.562527,-1.368254 -1.608363,-2.776147 -3.081466,-4.148584 -0.741951,-0.691241 -1.05327,-0.939118 -2.461865,-1.962154 -3.587808,-2.605735 -8.123064,-4.210873 -12.881385,-4.558378 -0.379097,-0.02769 -1.108933,-0.04154 -1.811259,-0.04134 z m -16.899743,1.44384 v 1.362707 1.362708 h 9.977169 9.976652 l 0.09095,-0.344682 c 0.04982,-0.189376 0.148168,-0.500428 0.219108,-0.691431 0.07092,-0.191002 0.115614,-0.360551 0.0987,-0.376721 -0.05075,-0.0486 -1.104199,-0.312712 -1.690336,-0.423747 -1.378793,-0.261188 -2.256547,-0.329342 -3.796151,-0.295072 -1.457286,0.03244 -1.480313,0.03581 -1.518253,0.205672 -0.05445,0.243751 -0.232986,0.545391 -0.438733,0.741557 -0.652408,0.62201 -1.683946,0.607938 -2.302185,-0.03152 -0.372161,-0.384919 -0.5141,-0.904886 -0.38964,-1.426786 0.01306,-0.05473 -0.58018,-0.06305 -5.106149,-0.07235 z m 32.474503,0 0.09043,0.113688 c 0.693425,0.872239 1.085388,1.48729 1.394747,2.188497 l 0.186552,0.42323 h 0.811837 0.811837 l 0.182417,-0.196371 c 0.988052,-1.062086 2.239242,-1.859663 3.676778,-2.343526 l 0.538469,-0.180868 -3.846794,-0.0021 z m 20.879863,0 -4.817794,0.0026 c -4.663164,0.0022 -4.810172,0.0046 -4.579565,0.07493 0.330981,0.101017 0.8058,0.345476 1.06195,0.546737 0.545756,0.428775 0.965612,1.097877 1.092957,1.740979 l 0.07183,0.359668 h 3.585311 3.585311 v -1.362191 z m -11.13007,0.176733 c -1.723234,-0.07745 -4.023538,0.757592 -5.290633,1.920296 -0.808226,0.741642 -1.205095,1.516085 -1.205095,2.351278 0,0.618026 0.135803,1.016033 0.692981,2.030367 0.33075,0.602105 0.489282,0.776934 0.723987,0.797884 0.432043,0.03857 0.775633,-0.08078 1.046448,-0.363285 0.11826,-0.123365 0.233615,-0.224276 0.256315,-0.224276 0.0227,0 0.152141,0.04849 0.287321,0.107487 0.311473,0.135954 0.722974,0.165118 1.463993,0.10387 0.893589,-0.07386 1.752288,-0.285245 2.374532,-0.584461 1.009565,-0.485453 2.187032,-1.580512 2.657202,-2.47065 0.276224,-0.522948 0.349333,-0.826377 0.349333,-1.450558 0,-0.499104 -0.01057,-0.577284 -0.100252,-0.750858 -0.227257,-0.439884 -0.643547,-0.698572 -1.182874,-0.734322 l -0.330212,-0.0217 -0.147795,-0.185519 C 72.89189,38.363071 72.454309,38.218845 71.569275,38.179065 Z m -51.524504,0.753959 -0.02842,0.247013 c -0.08623,0.753743 -0.162368,2.30326 -0.185518,3.766696 l -0.02635,1.661914 h 0.216007 0.216008 l 0.02945,-0.980302 c 0.02633,-0.877938 0.106619,-2.395319 0.183969,-3.479374 l 0.02791,-0.393258 -0.216524,-0.411345 z m 50.355583,0.787549 c 0,0.0082 -0.101736,0.06356 -0.225826,0.123507 -0.394247,0.190463 -0.991967,0.55923 -1.528072,0.942061 -0.3038,0.216939 -0.784051,0.623796 -1.155485,0.979268 l -0.635103,0.607715 0.08061,-0.224276 c 0.380043,-1.053168 1.253931,-1.811579 2.562117,-2.22467 0.326491,-0.103095 0.901754,-0.232895 0.901754,-0.203605 z m 1.679484,0.942578 c 0.123604,-0.01102 0.239528,-0.01049 0.344682,0.0021 0.199423,0.02375 0.272111,0.05555 0.393258,0.171049 0.137434,0.131027 0.147003,0.155523 0.122473,0.326078 -0.02756,0.191643 -0.146253,0.44666 -0.304375,0.652674 -0.187,0.243659 -1.447724,0.957599 -2.149222,1.217496 -0.131008,0.04854 -0.36453,0.116249 -0.519348,0.150379 -0.466434,0.102814 -1.732711,0.05708 -1.732711,-0.06253 0,-0.06273 0.506389,-0.634789 0.807186,-0.912089 0.909465,-0.838436 2.172836,-1.468008 3.038057,-1.545125 z m -22.770186,1.179256 -9.969934,0.01034 -9.969418,0.01034 -0.336413,1.11466 c -0.184842,0.613144 -0.336873,1.119296 -0.337447,1.124996 -7.2e-4,0.0057 0.03085,0.01034 0.06976,0.01034 0.186905,0 0.441868,0.116196 0.611849,0.278019 l 0.185001,0.1757 2.825151,0.01085 c 1.553723,0.006 5.996796,0.01569 9.873299,0.02119 l 7.048149,0.0098 v -1.383378 z m 14.562935,0.05064 c -0.0092,0.0063 -0.01057,0.02079 -0.0052,0.04444 0.0084,0.03636 0.297489,0.622896 0.642855,1.303279 0.345374,0.68038 0.630853,1.234216 0.633553,1.230416 0.0031,-0.0038 -0.04853,-0.211161 -0.114721,-0.460953 -0.149465,-0.564136 -0.215342,-1.066165 -0.215491,-1.641244 v -0.4439 h -0.407727 c -0.224335,0 -0.441018,-0.0122 -0.481108,-0.02687 -0.02614,-0.0095 -0.04295,-0.01147 -0.05219,-0.0052 z m 11.04222,0.03204 -0.244946,0.390673 c -0.324852,0.518997 -0.656598,0.90924 -1.177706,1.384412 -0.359828,0.328105 -0.674864,0.554969 -1.300696,0.936894 -0.06259,0.03819 1.189538,0.04978 5.606376,0.05168 5.396348,0.0023 5.685701,-0.0012 5.664771,-0.06976 -0.01211,-0.03974 -0.160519,-0.564552 -0.330213,-1.166337 -0.169693,-0.601787 -0.338257,-1.191808 -0.374137,-1.311031 l -0.06511,-0.216524 h -3.889169 z m -60.340503,2.064473 c 0.275421,0 0.479192,0.260235 0.571542,0.730705 0.06891,0.35105 0.02016,1.46257 -0.09043,2.056205 -0.290487,1.559247 -0.683148,2.389646 -1.396814,2.955892 -0.140506,0.111482 -0.262601,0.202572 -0.271301,0.202572 -0.0087,0 -0.03634,-0.09311 -0.06201,-0.207223 -0.292206,-1.299016 -0.159107,-2.848642 0.391707,-4.559928 0.259413,-0.805922 0.529972,-1.178223 0.857312,-1.178223 z m 70.802914,0.540019 c -0.365483,-0.01864 -0.642338,0.207367 -0.642338,0.589628 0,0.292709 0.0963,0.700769 0.49816,2.111499 0.418914,1.470577 0.757006,2.820068 0.757577,3.024621 2.7e-4,0.0738 -0.01802,0.133842 -0.04031,0.133842 -0.02228,0 -0.182858,-0.1742 -0.357084,-0.387573 -2.056221,-2.518371 -2.692622,-3.234764 -3.103686,-3.49436 -0.350206,-0.221154 -0.771601,-0.199846 -1.075904,0.05426 -0.314563,0.262678 -0.798728,1.506276 -0.967899,2.486153 -0.02744,0.158963 -0.137029,0.76244 -0.243913,1.34152 -0.106885,0.579081 -0.211684,1.209455 -0.232544,1.400948 -0.06993,0.641917 0.09724,1.679488 0.320911,1.992644 0.116532,0.163171 0.266886,0.269658 0.484725,0.343648 0.212605,0.07219 0.316675,0.0746 0.573608,0.01292 0.256443,-0.06156 0.613534,-0.388594 0.690914,-0.632519 0.02882,-0.09083 0.152418,-0.955167 0.274402,-1.920297 0.121983,-0.965135 0.230142,-1.781903 0.240812,-1.815393 0.01065,-0.03348 0.146108,0.169758 0.300757,0.451652 0.913663,1.665528 2.072979,3.127685 2.714046,3.423564 0.598582,0.276274 1.393077,0.05968 1.950268,-0.531751 0.258475,-0.274355 0.530621,-0.705882 0.661459,-1.049548 0.410718,-1.078803 0.284188,-2.868814 -0.310576,-4.389913 -0.505982,-1.294035 -1.525008,-2.766499 -2.105297,-3.042191 -0.134543,-0.06392 -0.26627,-0.09714 -0.38809,-0.103353 z m -51.958069,0.409794 c -0.144695,0.0047 -0.288334,0.03337 -0.374654,0.08423 -0.693215,0.408468 -1.709584,2.857949 -2.038119,4.911329 -0.09923,0.620271 -0.113484,2.580086 -0.02119,2.931604 0.186361,0.709712 0.71047,1.250873 1.407149,1.452624 0.245074,0.07099 0.366455,0.08242 0.67231,0.06253 0.805823,-0.05241 1.513491,-0.429383 2.842204,-1.513086 l 0.605131,-0.49351 0.02739,0.792716 c 0.01476,0.436116 0.0508,0.987834 0.08062,1.226282 0.165338,1.32373 0.748743,2.179298 1.636593,2.40037 h 5.16e-4 c 0.483312,0.120131 0.68364,0.08999 0.905371,-0.136426 0.233018,-0.237728 0.244111,-0.321736 0.234611,-1.727026 -0.0101,-1.487385 0.04279,-2.599034 0.166915,-3.520715 0.08939,-0.663735 0.325751,-1.854361 0.391191,-1.970939 0.02497,-0.04448 0.329419,-0.139509 0.917257,-0.286288 0.483956,-0.120841 0.968611,-0.261716 1.076936,-0.313676 0.269654,-0.129283 0.737713,-0.613648 0.902788,-0.933793 0.197238,-0.382586 0.245721,-0.701061 0.164331,-1.081588 -0.149889,-0.700738 -0.654521,-1.371643 -1.156002,-1.537374 -0.366939,-0.121273 -1.096677,-0.106772 -1.474845,0.02946 -0.333653,0.120195 -0.787729,0.41108 -1.386996,0.888835 -0.35341,0.281749 -0.457987,0.344165 -0.577226,0.344165 -0.215827,0 -0.81994,-0.113456 -1.233516,-0.232028 -0.776936,-0.222757 -1.059708,-0.406677 -1.26969,-0.825789 -0.144668,-0.288745 -0.279425,-0.372119 -0.536918,-0.332279 -0.370468,0.05732 -0.710201,0.525723 -0.709001,0.977201 9.46e-4,0.299812 0.09949,0.733237 0.217041,0.952913 0.198951,0.371801 0.639411,0.701283 1.731161,1.297079 0.321546,0.175485 0.591346,0.325079 0.599446,0.332279 0.0081,0.0071 -0.05456,0.279302 -0.139009,0.604615 -0.08445,0.325311 -0.193996,0.794808 -0.243396,1.043347 -0.04939,0.248537 -0.09747,0.459088 -0.10697,0.468188 -0.0095,0.0091 -0.199107,-0.0026 -0.421163,-0.02584 l -0.403593,-0.04237 -1.082622,0.350367 c -1.095674,0.354748 -1.338234,0.402288 -1.589567,0.310058 -0.06425,-0.02358 -0.148842,-0.08968 -0.188102,-0.146761 -0.0651,-0.09501 -0.06555,-0.118781 -0.0036,-0.280603 0.0372,-0.09722 0.108093,-0.464494 0.157613,-0.816488 0.126655,-0.900387 0.271767,-1.559562 0.526583,-2.395202 0.49161,-1.611968 0.550643,-1.88294 0.492993,-2.249475 -0.03274,-0.208133 -0.210098,-0.436967 -0.418062,-0.539502 -0.09148,-0.0451 -0.237194,-0.06412 -0.381889,-0.05943 z m 66.384061,0.658358 c -0.08792,0.0029 -0.186077,0.02951 -0.291455,0.08165 -0.243652,0.120568 -1.12127,1.006306 -1.619022,1.634009 -0.789572,0.995701 -1.43628,2.336074 -1.55081,3.214791 -0.06991,0.536423 0.04284,1.365396 0.285771,2.09858 l 0.105936,0.319877 -0.103352,0.197404 c -0.30374,0.578139 -0.827513,1.950844 -1.087273,2.850472 -0.325812,1.128358 -0.598963,2.562156 -0.599963,3.148128 -6.3e-4,0.319702 0.02079,0.453224 0.116789,0.722437 0.21155,0.593124 0.764397,1.313548 1.129647,1.471745 0.270002,0.116939 0.566631,0.09961 0.884183,-0.05168 0.14848,-0.07074 0.288059,-0.168571 0.310059,-0.217041 0.02201,-0.04848 0.243763,-0.849695 0.492993,-1.78077 0.24924,-0.931062 0.500289,-1.832666 0.557589,-2.002978 0.11621,-0.34545 1.014486,-2.471251 1.075386,-2.545065 0.02142,-0.02593 0.131026,-0.05971 0.243396,-0.07545 0.11238,-0.01573 0.545396,-0.110837 0.962216,-0.211357 1.13908,-0.274682 1.73314,-0.579743 2.87683,-1.476912 1.11822,-0.877187 1.90459,-1.907512 2.14509,-2.809648 0.33301,-1.249304 -0.0746,-2.615326 -1.03302,-3.461287 -0.3475,-0.30673 -0.64384,-0.417896 -1.10897,-0.415996 -0.24704,9.9e-4 -0.41543,0.02658 -0.58653,0.0894 -0.51117,0.187668 -2.45053,1.705325 -3.911906,3.060795 -0.38452,0.356654 -0.54755,0.485118 -0.52555,0.413928 0.10281,-0.332504 0.485287,-1.137067 0.952397,-2.002979 0.575289,-1.06649 0.715199,-1.398203 0.715199,-1.692919 0,-0.364184 -0.17185,-0.567873 -0.43563,-0.559139 z m -5.18573,0.01705 c -0.303372,-0.03023 -1.998727,0.0514 -2.715079,0.130741 -1.311532,0.145258 -2.677429,0.522481 -2.963127,0.818555 -0.152791,0.158275 -0.175118,0.495917 -0.04961,0.743107 0.162498,0.32003 0.54803,0.605219 0.98857,0.730705 0.21906,0.0624 0.224683,0.02692 -0.100769,0.687296 -0.12653,0.256736 -0.25377,0.466638 -0.28267,0.466638 -0.1059,0 -0.354279,0.222191 -0.433049,0.387574 -0.10184,0.213595 -0.10253,0.412517 -0.0026,0.624251 l 0.07803,0.164848 -0.291455,0.569474 c -0.361154,0.70546 -0.449569,1.024089 -0.418579,1.509469 0.02572,0.402768 0.14406,0.754715 0.453202,1.348238 0.314769,0.604301 0.688433,0.905445 1.285193,1.035595 h 5.17e-4 c 0.341072,0.07439 0.952049,0.0467 1.407149,-0.06408 0.478332,-0.116442 1.337966,-0.467952 2.387968,-0.976168 1.132582,-0.548182 1.292931,-0.648071 1.416451,-0.8816 0.115,-0.217483 0.121974,-0.363092 0.02997,-0.658358 -0.09004,-0.28908 -0.356094,-0.544568 -0.669726,-0.643888 -0.34941,-0.110644 -0.885309,-0.06337 -1.839681,0.162264 -0.42874,0.101362 -0.920487,0.230681 -1.092957,0.287321 -0.948492,0.311484 -1.049635,0.129999 -0.505395,-0.906922 l 0.196887,-0.37517 1.112077,0.01757 1.112593,0.01757 0.534851,-0.148829 c 0.29432,-0.08172 0.593993,-0.188048 0.665593,-0.236678 0.358052,-0.243057 0.32438,-0.928906 -0.05891,-1.200443 -0.23593,-0.167136 -0.407107,-0.201293 -1.228349,-0.243913 -1.217862,-0.0632 -1.24688,-0.06739 -1.21698,-0.173633 0.0139,-0.04919 0.025,-0.174698 0.02532,-0.279052 l 0.001,-0.189653 0.768428,-0.02584 c 0.7624,-0.02577 1.344385,-0.09671 2.399337,-0.291972 0.618332,-0.114442 0.746241,-0.165385 0.938961,-0.374654 0.25493,-0.276799 0.237268,-0.493366 -0.07493,-0.91519 -0.496106,-0.67035 -1.113925,-1.040997 -1.858285,-1.115177 z m -17.631481,0.04444 c -0.674666,-9.3e-5 -1.375783,0.02576 -1.778703,0.07855 -0.717822,0.09404 -1.468731,0.243284 -2.107365,0.418579 -1.348206,0.370056 -2.244272,0.943843 -2.60811,1.670182 -0.143859,0.287256 -0.156599,0.342431 -0.156579,0.684196 2.7e-5,0.315156 0.01745,0.40678 0.114205,0.603581 0.293124,0.596159 0.850353,0.88281 1.886706,0.971 0.171576,0.01459 0.707693,0.0038 1.191142,-0.02429 0.977451,-0.05678 2.101111,-0.01467 2.669088,0.09974 0.639938,0.128904 1.458883,0.4409 1.728576,0.658874 0.116416,0.09409 0.14056,0.142951 0.14056,0.28267 0,0.148297 -0.0251,0.191029 -0.205155,0.350883 -0.658559,0.584698 -1.961045,0.966836 -3.299024,0.967383 -0.628678,2.62e-4 -1.098282,-0.05459 -1.687235,-0.196371 -0.560257,-0.134876 -0.638869,-0.169638 -0.701249,-0.313159 -0.04635,-0.106618 -0.04191,-0.137363 0.03101,-0.230477 0.129723,-0.165668 0.368436,-0.227522 0.794784,-0.205672 0.302428,0.0155 0.463917,0.05319 0.904338,0.21084 0.683945,0.2448 1.189581,0.3318 1.737361,0.29869 0.780908,-0.04718 1.412912,-0.256346 1.538924,-0.50953 0.06686,-0.13419 0.06691,-0.157235 5.17e-4,-0.322977 -0.138279,-0.345218 -0.610232,-0.656412 -1.22008,-0.805119 -0.521959,-0.127278 -1.695782,-0.187251 -2.535246,-0.129191 -0.862378,0.05965 -1.215885,0.128104 -1.625741,0.313676 -0.751919,0.340441 -1.146212,1.003271 -0.95188,1.599902 0.145965,0.448125 0.75564,1.119078 1.299663,1.430404 0.494885,0.283205 1.253685,0.524952 2.086177,0.664042 0.599888,0.10022 1.841318,0.11346 2.447396,0.02636 0.692752,-0.09956 1.55277,-0.402341 2.031401,-0.715202 0.33026,-0.215875 0.727252,-0.625494 0.885217,-0.913123 0.201355,-0.366574 0.26311,-0.693615 0.23151,-1.225248 -0.07146,-1.203184 -0.818313,-2.158844 -1.931148,-2.47065 -0.128425,-0.03599 -0.625375,-0.102878 -1.104325,-0.148828 -1.754806,-0.16841 -2.874395,-0.316021 -3.563607,-0.469739 -0.250042,-0.05575 -0.251204,-0.05638 -0.100769,-0.08217 0.08337,-0.0143 0.921581,-0.110148 1.862418,-0.212906 4.120921,-0.450116 4.193414,-0.46006 4.502051,-0.608232 0.684151,-0.328439 0.763369,-0.875932 0.187069,-1.295011 -0.23758,-0.172767 -0.539965,-0.278044 -1.072803,-0.372588 -0.298027,-0.05286 -0.946431,-0.07897 -1.621089,-0.07906 z m -8.976714,0.369486 c -0.525973,0.09476 -0.71762,0.544326 -0.81132,1.90376 -0.09146,1.327088 -0.135842,1.818258 -0.223242,2.477368 -0.175493,1.323271 -0.149978,3.042273 0.05168,3.489193 0.120142,0.266267 0.412817,0.528926 0.696081,0.625284 0.590333,0.200795 1.396637,-0.139304 1.549776,-0.653706 0.07516,-0.25237 0.106096,-2.630657 0.05064,-3.894336 -0.0956,-2.178244 -0.151256,-2.679113 -0.35295,-3.193073 -0.194971,-0.496841 -0.604927,-0.818566 -0.960665,-0.754476 z m -18.277437,2.37868 H 49.829 v 2.043803 2.04432 l -0.09715,-0.0036 c -0.162606,-0.005 -0.847588,-0.196227 -1.264005,-0.35295 -1.082237,-0.407297 -2.311824,-1.217549 -3.139344,-2.068607 -0.375179,-0.385866 -0.435494,-0.514656 -0.331762,-0.7059 0.05364,-0.0989 0.135355,-0.146473 0.425297,-0.246497 1.200133,-0.414024 2.098297,-0.585526 3.497977,-0.668176 0.393014,-0.02322 0.758247,-0.04234 0.811837,-0.04237 z m 53.954332,0.107487 c 0.11918,0 0.18376,0.02808 0.26096,0.113688 0.0875,0.09703 0.10284,0.15766 0.10284,0.412378 0,0.534485 -0.20182,1.063748 -0.57981,1.519287 -0.18964,0.228541 -1.01758,0.857855 -1.43557,1.091407 -0.18315,0.102331 -0.49534,0.183759 -0.6072,0.158129 -0.0224,-0.0051 -0.0947,-0.02085 -0.1602,-0.03462 -0.0655,-0.01377 -0.11885,-0.04598 -0.11885,-0.07183 0,-0.08065 0.42611,-0.853708 0.6966,-1.264005 0.35212,-0.53413 0.87103,-1.15642 1.31413,-1.575615 0.32767,-0.309996 0.38636,-0.348816 0.5271,-0.348816 z m -75.593321,0.192236 c 0.03321,0.05944 0.212907,0.831229 0.212907,0.914673 0,0.03081 -0.04886,0.08676 -0.108521,0.124024 -0.212093,0.132471 -0.449017,0.117638 -0.58291,-0.03617 -0.05318,-0.0611 -0.02965,-0.128929 0.19482,-0.561723 0.147808,-0.285009 0.267084,-0.470518 0.283704,-0.4408 z M 41.08328,62.137292 c -0.314681,7.59e-4 -0.629972,0.02598 -0.824755,0.07596 -1.226068,0.31461 -2.226832,1.268748 -2.561084,2.441711 -0.133612,0.469085 -0.133555,1.305318 0,1.775086 0.384277,1.351627 1.564614,2.36403 2.957442,2.536279 0.425541,0.05265 0.601331,0.04964 1.008724,-0.01809 0.771749,-0.128308 1.461246,-0.478463 1.984892,-1.00769 0.269548,-0.272426 0.680578,-0.865914 0.680578,-0.982886 0,-0.03965 -0.134983,-0.05219 -0.555521,-0.05219 h -0.555522 l -0.0615,0.10852 c -0.09808,0.17472 -0.542511,0.533054 -0.855245,0.689364 -0.440633,0.220208 -0.771514,0.28827 -1.285193,0.26355 -0.506049,-0.02438 -0.847346,-0.124653 -1.230416,-0.360702 -0.726315,-0.44757 -1.122263,-1.11533 -1.162203,-1.960087 -0.03626,-0.767323 0.181671,-1.320593 0.724504,-1.83813 0.507019,-0.483402 1.059122,-0.70125 1.776636,-0.70125 0.735793,0 1.276564,0.214506 1.784387,0.707967 l 0.333313,0.324012 h 0.478524 0.478523 V 63.21009 62.280948 h -0.433048 -0.433049 v 0.353984 0.3545 l -0.227376,-0.191203 c -0.26653,-0.224011 -0.803741,-0.486995 -1.201994,-0.588595 -0.192128,-0.04912 -0.505933,-0.07311 -0.820622,-0.07235 z m 46.488119,0.04548 c -1.509724,-0.01165 -2.473347,1.352615 -1.838131,2.602425 0.160146,0.315074 0.523688,0.644972 0.912089,0.82734 0.154357,0.07246 0.532757,0.199513 0.841293,0.282153 0.308536,0.08264 0.681301,0.204661 0.828373,0.271301 0.856673,0.388169 0.818451,1.496669 -0.06511,1.885673 -0.710189,0.312672 -1.550228,-0.09151 -1.700154,-0.818038 l -0.05064,-0.24598 h -0.449068 -0.449068 v 0.929143 0.929142 h 0.38964 0.390157 v -0.227376 c 0,-0.124902 0.0098,-0.22686 0.0217,-0.22686 0.01191,0 0.09846,0.0734 0.192753,0.163298 0.191378,0.182456 0.445841,0.319395 0.73794,0.396875 0.662567,0.175768 1.477637,-0.03589 1.994193,-0.517798 0.38011,-0.354611 0.566279,-0.748429 0.594279,-1.257805 0.03469,-0.632339 -0.108779,-1.033322 -0.506429,-1.412317 -0.309606,-0.295071 -0.707603,-0.481044 -1.442806,-0.67386 -0.345333,-0.09057 -0.683819,-0.18476 -0.752409,-0.20929 -0.70616,-0.252591 -0.897838,-1.108135 -0.357601,-1.596801 0.366032,-0.331095 0.97669,-0.386542 1.382862,-0.125574 0.223383,0.143525 0.420935,0.4176 0.454235,0.629419 l 0.02946,0.186035 h 0.449585 0.450102 v -0.84646 -0.84646 H 89.238481 88.84884 v 0.225309 0.225826 l -0.195853,-0.181901 c -0.278331,-0.257898 -0.590073,-0.363519 -1.081588,-0.367419 z m -64.808964,0.0925 v 0.415478 0.415479 h 0.411344 0.411345 v 2.456697 2.456698 h -0.411345 -0.411344 v 0.413928 0.413411 l 1.309997,-0.01085 1.309998,-0.01137 0.0124,-0.40256 0.0124,-0.402559 h -0.41289 -0.413411 v -0.805119 -0.805119 l 0.834057,-5.17e-4 c 0.557728,-3.3e-4 0.905203,-0.01834 1.050065,-0.05529 1.074673,-0.2741 1.75115,-1.342165 1.536857,-2.426209 -0.112173,-0.567419 -0.552251,-1.144532 -1.046964,-1.373043 -0.514361,-0.237552 -0.607059,-0.24714 -2.471167,-0.26355 z m 27.715621,0.0052 -2.555917,5.17e-4 0.01137,0.960148 0.01189,0.960148 0.399459,0.01137 0.398942,0.01137 0.0124,-0.527617 0.01189,-0.528133 h 0.606681 0.606165 l 0.01085,2.425692 0.01137,2.425692 h -0.411861 -0.411861 v 0.413928 0.413411 l 1.309998,-0.01033 1.310514,-0.01085 0.01189,-0.402559 0.0124,-0.40256 h -0.412895 -0.412895 v -2.43706 -2.436027 h 0.605132 0.605131 l 0.01188,0.526583 0.0124,0.526582 0.400493,0.01189 0.400492,0.01189 V 63.25247 62.280436 Z m 28.323852,0 -2.468583,5.17e-4 v 0.412895 0.412894 h 0.38964 0.389641 v 2.456698 2.456698 h -0.389641 -0.38964 v 0.412894 0.412895 h 2.468583 2.468067 v -0.928626 -0.929142 h -0.519348 -0.519865 v 0.495577 0.495577 H 79.191549 78.152336 V 66.946818 65.91484 h 1.149283 1.148768 l -0.0124,-0.382406 -0.0124,-0.381889 -1.136882,-0.01137 -1.136364,-0.01085 v -0.990637 -0.99012 h 1.037662 1.03818 l 0.0124,0.485241 0.01189,0.485242 0.509013,0.01137 0.509013,0.01189 v -0.930176 -0.930693 z m -47.421394,5.17e-4 v 0.412895 0.412894 h 0.411344 0.411344 v 2.456698 2.456698 h -0.411344 -0.411344 v 0.412894 0.412895 h 1.320849 1.32085 V 68.433032 68.020138 H 33.610868 33.199007 V 65.56344 63.106742 h 0.411861 0.411345 v -0.412894 -0.412895 h -1.32085 z m 35.425227,0 v 0.412895 0.412894 h 0.411345 0.411344 v 2.456698 2.456698 h -0.411344 -0.411345 v 0.412894 0.412895 h 1.255738 1.256254 v -0.412895 -0.412894 h -0.346749 -0.346749 l 0.01085,-2.425692 0.01137,-2.425692 0.411344,-0.0124 c 0.596524,-0.01761 1.341739,0.05041 1.540992,0.14056 0.238081,0.107715 0.485173,0.359214 0.61805,0.629419 0.09586,0.194919 0.114721,0.291119 0.114721,0.58446 0,0.29992 -0.01788,0.384373 -0.120406,0.583427 -0.14065,0.273069 -0.4317,0.544203 -0.716752,0.667143 -0.168654,0.07279 -0.316391,0.09134 -0.884184,0.11007 l -0.681612,0.02222 1.086756,1.476396 1.086755,1.475879 h 0.731738 0.731739 V 68.43462 68.023275 l -0.41858,-0.01189 -0.418579,-0.01189 -0.595312,-0.74259 c -0.327489,-0.408472 -0.587559,-0.754656 -0.578259,-0.768946 0.0093,-0.01435 0.112243,-0.03797 0.228926,-0.05271 0.648446,-0.08202 1.305031,-0.699217 1.499133,-1.409733 0.07774,-0.284707 0.08581,-0.750406 0.0186,-1.059883 -0.129832,-0.597992 -0.587193,-1.179183 -1.127063,-1.431954 -0.494892,-0.231702 -0.696865,-0.251634 -2.62568,-0.252181 z m -10.00404,5.17e-4 v 0.412894 0.412895 h 0.387056 0.38654 l 0.01809,2.054138 c 0.01233,1.432888 0.03308,2.109813 0.06976,2.238623 0.238283,0.837086 0.913065,1.425793 1.795239,1.566313 0.821528,0.130863 1.63641,-0.09632 2.163692,-0.603064 0.295267,-0.283756 0.440039,-0.531489 0.550871,-0.944645 0.07957,-0.296553 0.08527,-0.462207 0.08527,-2.315621 v -1.995744 h 0.411861 0.411345 V 62.694364 62.28147 h -1.277958 -1.277442 v 0.412894 0.412895 h 0.368453 0.367936 l -5.16e-4,1.785421 c -1.7e-4,1.036074 -0.01935,1.898944 -0.04548,2.054655 -0.115764,0.689297 -0.593706,1.112844 -1.256254,1.114144 -0.546195,7.66e-4 -0.963614,-0.240676 -1.196309,-0.692465 l -0.12144,-0.236161 -0.0124,-2.012797 -0.0124,-2.012797 h 0.347782 0.348299 V 62.694364 62.28147 h -1.256254 z m -32.220772,0.901237 0.747241,0.01447 c 0.674477,0.01296 0.769417,0.02362 0.976168,0.112138 0.28367,0.121439 0.542991,0.394088 0.640271,0.673344 0.09323,0.267611 0.06677,0.68971 -0.05788,0.922424 -0.133801,0.249812 -0.439486,0.497372 -0.706934,0.573092 -0.165394,0.0468 -0.417789,0.0646 -0.913639,0.0646 h -0.685229 v -1.179773 z" /></g></svg>
